<svg width="152" height="118" viewBox="0 0 152 118" fill="none" xmlns="http://www.w3.org/2000/svg">
<path d="M89.84 12.9199C90.0451 13.0756 90.2114 13.2768 90.3259 13.5075C90.4404 13.7382 90.5 13.9923 90.5 14.2499V43.9799C90.5 45.4865 91.24 46.1065 92.72 45.8399L93.2 45.7599C93.6141 45.687 93.9894 45.4708 94.26 45.149C94.5306 44.8271 94.6793 44.4203 94.68 43.9999C94.68 34.3932 94.68 24.8232 94.68 15.2899C94.68 9.54986 91.09 8.10986 85.81 8.10986C72.87 8.10986 59.93 8.1132 46.99 8.11986C42.23 8.11986 40.5 11.8699 40.5 16.3199C40.5067 41.6465 40.5033 66.9765 40.49 92.3099C40.49 98.1599 43.18 100.01 48.96 99.9999C55.2133 99.9932 61.4767 99.9965 67.75 100.01C69.2033 100.017 69.8533 99.2965 69.7 97.8499L69.63 97.2499C69.5905 96.8821 69.4166 96.5419 69.1416 96.2945C68.8666 96.0472 68.5099 95.9102 68.14 95.9099L47.05 95.9199C46.4214 95.9199 45.8186 95.6702 45.3741 95.2257C44.9297 94.7812 44.68 94.1784 44.68 93.5499V14.4999C44.68 13.9243 44.9076 13.3724 45.3126 12.9654C45.7177 12.5585 46.2671 12.3299 46.84 12.3299C60.64 12.3299 74.4 12.3665 88.12 12.4399C88.84 12.4399 89.4133 12.5999 89.84 12.9199Z" stroke="#009AFF" stroke-width="2"/>
<path d="M73.7599 18.6697C73.7599 18.1366 73.5482 17.6253 73.1712 17.2484C72.7943 16.8714 72.283 16.6597 71.7499 16.6597H63.3299C62.7969 16.6597 62.2856 16.8714 61.9087 17.2484C61.5317 17.6253 61.3199 18.1366 61.3199 18.6697V18.8497C61.3199 19.3828 61.5317 19.894 61.9087 20.271C62.2856 20.6479 62.7969 20.8597 63.3299 20.8597H71.7499C72.283 20.8597 72.7943 20.6479 73.1712 20.271C73.5482 19.894 73.7599 19.3828 73.7599 18.8497V18.6697Z" stroke="#009AFF" stroke-width="2"/>
<path d="M69.6752 35.2144C69.6788 34.6919 69.4748 34.1894 69.1079 33.8174C68.7411 33.4453 68.2415 33.2343 67.719 33.2307L67.499 33.2291C66.9765 33.2254 66.474 33.4295 66.102 33.7963C65.73 34.1632 65.5189 34.6628 65.5153 35.1853L65.4848 39.5451C65.4811 40.0676 65.6852 40.5701 66.052 40.9421C66.4189 41.3142 66.9185 41.5252 67.441 41.5288L67.661 41.5305C68.1835 41.5341 68.686 41.33 69.058 40.9632C69.43 40.5963 69.641 40.0967 69.6447 39.5743L69.6752 35.2144Z" stroke="#009AFF" stroke-width="2"/>
<path d="M60.8703 44.8452C61.039 44.6723 61.1721 44.4678 61.2618 44.2434C61.3515 44.0191 61.3962 43.7793 61.3933 43.5376C61.3903 43.296 61.3398 43.0573 61.2446 42.8352C61.1494 42.6131 61.0114 42.412 60.8385 42.2432L56.3869 37.8991C56.2139 37.7304 56.0094 37.5973 55.7851 37.5076C55.5607 37.4178 55.3209 37.3732 55.0793 37.3761C54.8377 37.3791 54.599 37.4296 54.3769 37.5248C54.1548 37.62 53.9536 37.758 53.7849 37.9309L53.4497 38.2744C53.2809 38.4474 53.1478 38.6518 53.0581 38.8762C52.9684 39.1006 52.9237 39.3404 52.9267 39.582C52.9296 39.8236 52.9801 40.0623 53.0753 40.2844C53.1705 40.5065 53.3085 40.7077 53.4815 40.8764L57.9331 45.2205C58.106 45.3893 58.3105 45.5223 58.5348 45.6121C58.7592 45.7018 58.999 45.7465 59.2406 45.7435C59.4823 45.7406 59.7209 45.6901 59.943 45.5949C60.1651 45.4997 60.3663 45.3617 60.5351 45.1887L60.8703 44.8452Z" stroke="#009AFF" stroke-width="2"/>
<path d="M81.2319 37.834C81.076 37.6759 80.8906 37.5501 80.6862 37.4638C80.4817 37.3774 80.2623 37.3322 80.0403 37.3306C79.8184 37.3291 79.5983 37.3712 79.3927 37.4547C79.1871 37.5382 78.9999 37.6614 78.8419 37.8173L74.1852 42.4094C73.8661 42.7241 73.685 43.1527 73.6819 43.6009C73.6788 44.0491 73.8539 44.4801 74.1686 44.7993L74.6881 45.3262C74.8439 45.4842 75.0293 45.61 75.2338 45.6963C75.4382 45.7827 75.6577 45.8279 75.8796 45.8295C76.1015 45.831 76.3216 45.7889 76.5272 45.7054C76.7329 45.6219 76.92 45.4987 77.0781 45.3429L81.7348 40.7508C82.0539 40.436 82.2349 40.0074 82.238 39.5592C82.2411 39.1111 82.0661 38.68 81.7514 38.3609L81.2319 37.834Z" stroke="#009AFF" stroke-width="2"/>
<path d="M94.88 52.08C94.88 52.6533 94.5967 52.8933 94.03 52.8C89.7634 52.1133 86.8134 53.6933 85.18 57.54C85.1543 57.6015 85.1136 57.6556 85.0617 57.6973C85.0097 57.7391 84.9482 57.7672 84.8826 57.7791C84.817 57.791 84.7495 57.7864 84.6862 57.7656C84.6229 57.7448 84.5658 57.7085 84.52 57.66C81.48 54.62 78.42 51.62 75.34 48.66C66.77 40.43 55.94 51.51 64.18 59.79C74.6734 70.3233 85.15 80.8033 95.61 91.23C95.9434 91.57 95.8734 91.7333 95.4 91.72C89.43 91.56 77.17 90.13 76.79 99.63C76.61 104.07 80.85 108.05 85 108.06C94.54 108.087 104.223 108.09 114.05 108.07C114.241 108.069 114.43 108.03 114.607 107.955C114.783 107.88 114.942 107.771 115.076 107.635C115.21 107.498 115.315 107.336 115.386 107.159C115.457 106.981 115.493 106.791 115.49 106.6L115.48 106.15C115.46 104.737 114.747 104.027 113.34 104.02C103.873 104 94.5934 103.923 85.5 103.79C79.16 103.7 79.73 95.9 85.87 95.9C90.9034 95.9 95.94 95.8933 100.98 95.88C101.393 95.8802 101.797 95.7574 102.14 95.5271C102.484 95.2969 102.751 94.9696 102.908 94.5865C103.065 94.2034 103.106 93.7817 103.024 93.3748C102.943 92.9678 102.743 92.5938 102.45 92.3L66.17 55.99C65.5928 55.4119 65.2459 54.6432 65.1944 53.8278C65.1428 53.0124 65.3901 52.2062 65.89 51.56L66.31 51.02C66.6165 50.6245 67.0035 50.2988 67.4455 50.0642C67.8874 49.8297 68.3741 49.6918 68.8734 49.6596C69.3727 49.6275 69.8731 49.7018 70.3414 49.8777C70.8098 50.0537 71.2354 50.3271 71.59 50.68L91.01 70.07C91.8967 70.9567 92.8234 71 93.79 70.2L94.04 69.99C94.2402 69.8228 94.4021 69.6145 94.5147 69.3792C94.6273 69.1439 94.6881 68.8872 94.6928 68.6264C94.6976 68.3656 94.6462 68.1069 94.5422 67.8677C94.4382 67.6285 94.284 67.4144 94.09 67.24C91.5234 64.9067 89.9767 63.1667 89.45 62.02C87.23 57.25 92.36 55.39 95.59 58.17C96.97 59.3567 98.3034 60.56 99.59 61.78C100.537 62.6667 101.47 62.65 102.39 61.73L102.86 61.26C102.987 61.133 103.086 60.9814 103.151 60.8147C103.216 60.6481 103.247 60.4699 103.24 60.2915C103.234 60.1131 103.19 59.9382 103.113 59.7779C103.035 59.6176 102.925 59.4753 102.79 59.36C100.92 57.75 97.36 53.66 99.38 51.1C101.96 47.83 106.29 52.02 108.18 53.74C108.478 54.0092 108.87 54.1498 109.271 54.1311C109.672 54.1124 110.049 53.9358 110.32 53.64L110.95 52.95C111.191 52.6842 111.331 52.3415 111.343 51.9828C111.356 51.6241 111.242 51.2724 111.02 50.99L108.95 48.35C108.775 48.1275 108.665 47.8612 108.632 47.5803C108.598 47.2993 108.643 47.0146 108.761 46.7573C108.878 46.5 109.065 46.2802 109.299 46.1219C109.534 45.9636 109.807 45.873 110.09 45.86C112.9 45.73 114.18 47.36 116.02 49.2C123.22 56.3467 130.29 63.41 137.23 70.39C137.506 70.6679 137.877 70.8309 138.267 70.8458C138.657 70.8607 139.037 70.7263 139.33 70.47L139.74 70.11C140.813 69.1633 140.847 68.1833 139.84 67.17C132.84 60.1567 125.707 53.0467 118.44 45.84C116.54 43.9533 115.073 42.77 114.04 42.29C110.78 40.78 106.33 41.57 105.1 45.53C105 45.8633 104.777 46.0267 104.43 46.02C102.82 46 101.16 45.74 99.76 46.09C96.5267 46.8767 94.9 48.8733 94.88 52.08Z" stroke="#009AFF" stroke-width="2"/>
<path d="M57.22 51.9C57.22 51.4067 57.024 50.9336 56.6752 50.5848C56.3264 50.236 55.8533 50.04 55.36 50.04H50.62C50.1267 50.04 49.6536 50.236 49.3048 50.5848C48.956 50.9336 48.76 51.4067 48.76 51.9V52.1C48.76 52.5933 48.956 53.0664 49.3048 53.4153C49.6536 53.7641 50.1267 53.96 50.62 53.96H55.36C55.8533 53.96 56.3264 53.7641 56.6752 53.4153C57.024 53.0664 57.22 52.5933 57.22 52.1V51.9Z" stroke="#009AFF" stroke-width="2"/>
<path d="M60.5041 58.769C60.3366 58.5985 60.1371 58.4627 59.9171 58.3693C59.6971 58.2759 59.4609 58.2268 59.2219 58.2247C58.9829 58.2226 58.7458 58.2676 58.5242 58.3571C58.3026 58.4467 58.1008 58.579 57.9303 58.7465L53.4939 63.1062C53.1497 63.4445 52.9539 63.9057 52.9497 64.3884C52.9454 64.871 53.1331 65.3356 53.4714 65.6799L53.8359 66.0508C54.0034 66.2213 54.2029 66.3571 54.4229 66.4505C54.6429 66.5439 54.8792 66.593 55.1182 66.5951C55.3572 66.5972 55.5942 66.5522 55.8158 66.4627C56.0374 66.3731 56.2392 66.2408 56.4097 66.0733L60.8461 61.7136C61.1904 61.3753 61.3862 60.9141 61.3904 60.4314C61.3946 59.9487 61.2069 59.4842 60.8686 59.1399L60.5041 58.769Z" stroke="#009AFF" stroke-width="2"/>
<path d="M69.6599 89.4997C69.6599 88.956 69.444 88.4346 69.0595 88.0501C68.6751 87.6657 68.1536 87.4497 67.6099 87.4497C67.0662 87.4497 66.5448 87.6657 66.1604 88.0501C65.7759 88.4346 65.5599 88.956 65.5599 89.4997C65.5599 90.0434 65.7759 90.5648 66.1604 90.9493C66.5448 91.3337 67.0662 91.5497 67.6099 91.5497C68.1536 91.5497 68.6751 91.3337 69.0595 90.9493C69.444 90.5648 69.6599 90.0434 69.6599 89.4997Z" stroke="#009AFF" stroke-width="2"/>
<path d="M89.84 12.9199C89.4133 12.5999 88.84 12.4399 88.12 12.4399C74.4 12.3665 60.64 12.3299 46.84 12.3299C46.2671 12.3299 45.7177 12.5585 45.3126 12.9654C44.9076 13.3724 44.68 13.9243 44.68 14.4999V93.5499C44.68 94.1784 44.9297 94.7812 45.3741 95.2257C45.8186 95.6702 46.4214 95.9199 47.05 95.9199L68.14 95.9099C68.5099 95.9102 68.8666 96.0472 69.1416 96.2945C69.4166 96.5419 69.5905 96.8821 69.63 97.2499L69.7 97.8499C69.8533 99.2965 69.2033 100.017 67.75 100.01C61.4767 99.9965 55.2133 99.9932 48.96 99.9999C43.18 100.01 40.49 98.1599 40.49 92.3099C40.5033 66.9765 40.5067 41.6465 40.5 16.3199C40.5 11.8699 42.23 8.11986 46.99 8.11986C59.93 8.1132 72.87 8.10986 85.81 8.10986C91.09 8.10986 94.68 9.54986 94.68 15.2899C94.68 24.8232 94.68 34.3932 94.68 43.9999C94.6793 44.4203 94.5306 44.8271 94.26 45.149C93.9894 45.4708 93.6141 45.687 93.2 45.7599L92.72 45.8399C91.24 46.1065 90.5 45.4865 90.5 43.9799V14.2499C90.5 13.9923 90.4404 13.7382 90.3259 13.5075C90.2114 13.2768 90.0451 13.0756 89.84 12.9199Z" fill="#009AFF"/>
<path d="M71.7499 16.6602H63.3299C62.2199 16.6602 61.3199 17.5601 61.3199 18.6702V18.8502C61.3199 19.9602 62.2199 20.8602 63.3299 20.8602H71.7499C72.86 20.8602 73.7599 19.9602 73.7599 18.8502V18.6702C73.7599 17.5601 72.86 16.6602 71.7499 16.6602Z" fill="#009AFF"/>
<path d="M67.719 33.2311L67.499 33.2296C66.411 33.222 65.5229 34.0978 65.5153 35.1858L65.4849 39.5457C65.4773 40.6336 66.3531 41.5218 67.4411 41.5294L67.6611 41.5309C68.749 41.5385 69.6372 40.6627 69.6448 39.5747L69.6752 35.2148C69.6828 34.1268 68.807 33.2387 67.719 33.2311Z" fill="#009AFF"/>
<path d="M60.8386 42.2435L56.3869 37.8993C55.6597 37.1896 54.4947 37.2038 53.785 37.9311L53.4497 38.2747C52.74 39.002 52.7542 40.1669 53.4815 40.8766L57.9331 45.2208C58.6604 45.9305 59.8254 45.9163 60.5351 45.189L60.8703 44.8454C61.5801 44.1182 61.5658 42.9532 60.8386 42.2435Z" fill="#009AFF"/>
<path d="M78.8419 37.817L74.1853 42.4091C73.5207 43.0644 73.5132 44.1344 74.1686 44.799L74.6882 45.3259C75.3435 45.9905 76.4136 45.998 77.0781 45.3426L81.7348 40.7505C82.3994 40.0952 82.4068 39.0251 81.7515 38.3606L81.2319 37.8337C80.5765 37.1691 79.5065 37.1616 78.8419 37.817Z" fill="#009AFF"/>
<path d="M94.88 52.08C94.9 48.8733 96.5267 46.8767 99.76 46.09C101.16 45.74 102.82 46 104.43 46.02C104.777 46.0267 105 45.8633 105.1 45.53C106.33 41.57 110.78 40.78 114.04 42.29C115.073 42.77 116.54 43.9533 118.44 45.84C125.707 53.0467 132.84 60.1567 139.84 67.17C140.847 68.1833 140.813 69.1633 139.74 70.11L139.33 70.47C139.037 70.7263 138.657 70.8607 138.267 70.8458C137.877 70.8309 137.506 70.6679 137.23 70.39C130.29 63.41 123.22 56.3467 116.02 49.2C114.18 47.36 112.9 45.73 110.09 45.86C109.807 45.873 109.534 45.9636 109.299 46.1219C109.065 46.2802 108.878 46.5 108.761 46.7573C108.643 47.0146 108.598 47.2993 108.632 47.5803C108.665 47.8612 108.775 48.1275 108.95 48.35L111.02 50.99C111.242 51.2724 111.356 51.6241 111.343 51.9828C111.331 52.3415 111.191 52.6842 110.95 52.95L110.32 53.64C110.049 53.9358 109.672 54.1124 109.271 54.1311C108.87 54.1498 108.478 54.0092 108.18 53.74C106.29 52.02 101.96 47.83 99.38 51.1C97.36 53.66 100.92 57.75 102.79 59.36C102.925 59.4753 103.035 59.6176 103.113 59.7779C103.19 59.9382 103.234 60.1131 103.24 60.2915C103.247 60.4699 103.216 60.6481 103.151 60.8147C103.086 60.9814 102.987 61.133 102.86 61.26L102.39 61.73C101.47 62.65 100.537 62.6667 99.59 61.78C98.3034 60.56 96.97 59.3567 95.59 58.17C92.36 55.39 87.23 57.25 89.45 62.02C89.9767 63.1667 91.5234 64.9067 94.09 67.24C94.284 67.4144 94.4382 67.6285 94.5422 67.8677C94.6462 68.1069 94.6976 68.3656 94.6928 68.6264C94.6881 68.8872 94.6273 69.1439 94.5147 69.3792C94.4021 69.6145 94.2402 69.8228 94.04 69.99L93.79 70.2C92.8234 71 91.8967 70.9567 91.01 70.07L71.59 50.68C71.2354 50.3271 70.8098 50.0537 70.3414 49.8777C69.8731 49.7018 69.3727 49.6275 68.8734 49.6596C68.3741 49.6918 67.8874 49.8297 67.4455 50.0642C67.0035 50.2988 66.6165 50.6245 66.31 51.02L65.89 51.56C65.3901 52.2062 65.1428 53.0124 65.1944 53.8278C65.2459 54.6432 65.5928 55.4119 66.17 55.99L102.45 92.3C102.743 92.5938 102.943 92.9678 103.024 93.3748C103.106 93.7817 103.065 94.2034 102.908 94.5865C102.751 94.9696 102.484 95.2969 102.14 95.5271C101.797 95.7574 101.393 95.8802 100.98 95.88C95.94 95.8933 90.9034 95.9 85.87 95.9C79.73 95.9 79.16 103.7 85.5 103.79C94.5934 103.923 103.873 104 113.34 104.02C114.747 104.027 115.46 104.737 115.48 106.15L115.49 106.6C115.493 106.791 115.457 106.981 115.386 107.159C115.315 107.336 115.21 107.498 115.076 107.635C114.942 107.771 114.783 107.88 114.607 107.955C114.43 108.03 114.241 108.069 114.05 108.07C104.223 108.09 94.54 108.087 85 108.06C80.85 108.05 76.61 104.07 76.79 99.63C77.17 90.13 89.43 91.56 95.4 91.72C95.8734 91.7333 95.9434 91.57 95.61 91.23C85.15 80.8033 74.6734 70.3233 64.18 59.79C55.94 51.51 66.77 40.43 75.34 48.66C78.42 51.62 81.48 54.62 84.52 57.66C84.5658 57.7085 84.6229 57.7448 84.6862 57.7656C84.7495 57.7864 84.817 57.791 84.8826 57.7791C84.9482 57.7672 85.0097 57.7391 85.0617 57.6973C85.1136 57.6556 85.1543 57.6015 85.18 57.54C86.8134 53.6933 89.7634 52.1133 94.03 52.8C94.5967 52.8933 94.88 52.6533 94.88 52.08Z" fill="#009AFF"/>
<path d="M55.36 50.04H50.62C49.5928 50.04 48.76 50.8728 48.76 51.9V52.1C48.76 53.1273 49.5928 53.96 50.62 53.96H55.36C56.3873 53.96 57.22 53.1273 57.22 52.1V51.9C57.22 50.8728 56.3873 50.04 55.36 50.04Z" fill="#009AFF"/>
<path d="M57.9303 58.7465L53.4939 63.1062C52.777 63.8107 52.7669 64.963 53.4715 65.68L53.8359 66.0508C54.5405 66.7678 55.6928 66.7778 56.4097 66.0733L60.8461 61.7136C61.563 61.0091 61.5731 59.8568 60.8686 59.1399L60.5041 58.769C59.7996 58.0521 58.6473 58.042 57.9303 58.7465Z" fill="#009AFF"/>
<path d="M67.6101 91.5502C68.7422 91.5502 69.6601 90.6324 69.6601 89.5002C69.6601 88.368 68.7422 87.4502 67.6101 87.4502C66.4779 87.4502 65.5601 88.368 65.5601 89.5002C65.5601 90.6324 66.4779 91.5502 67.6101 91.5502Z" fill="#009AFF"/>
</svg>
