<?xml version="1.0" encoding="UTF-8" standalone="no"?>
<!DOCTYPE svg PUBLIC "-//W3C//DTD SVG 1.1//EN" "http://www.w3.org/Graphics/SVG/1.1/DTD/svg11.dtd">
<svg xmlns="http://www.w3.org/2000/svg" version="1.1" viewBox="0.00 0.00 500.00 500.00">
<g stroke-width="2.00" fill="none" stroke-linecap="butt">
<path stroke="#008eff" vector-effect="non-scaling-stroke" d="
  M 170.56 30.59
  Q 169.00 39.45 170.46 48.14"
/>
<path stroke="#009fff" vector-effect="non-scaling-stroke" d="
  M 134.63 59.73
  Q 133.35 50.58 133.87 41.55
  Q 133.89 41.25 133.75 40.99
  Q 133.69 40.87 133.64 40.74
  Q 133.47 40.26 133.97 40.15
  Q 134.89 39.93 134.91 39.21"
/>
<path stroke="#007eff" vector-effect="non-scaling-stroke" d="
  M 204.49 40.38
  L 204.17 58.94
  Q 204.16 59.44 203.69 59.61
  Q 203.02 59.86 202.82 60.54"
/>
<path stroke="#009fff" vector-effect="non-scaling-stroke" d="
  M 146.55 147.22
  Q 146.18 147.41 146.09 147.92
  Q 146.01 148.41 145.56 148.17
  Q 145.26 148.01 144.87 148.23
  Q 144.68 148.33 144.82 148.48
  Q 144.94 148.62 144.94 148.75
  Q 144.86 154.94 144.87 161.19
  Q 144.87 161.64 144.43 161.69
  Q 143.46 161.80 143.58 162.81"
/>
<path stroke="#00b3ff" vector-effect="non-scaling-stroke" d="
  M 68.73 131.18
  Q 67.51 123.40 68.35 116.00
  Q 68.49 114.76 68.31 111.68
  A 0.31 0.31 0.0 0 0 68.01 111.39
  L 67.62 111.38
  A 0.27 0.26 -68.6 0 1 67.43 110.94
  Q 68.71 109.51 69.24 107.73"
/>
<path stroke="#008eff" vector-effect="non-scaling-stroke" d="
  M 175.06 158.48
  L 174.87 177.65
  Q 174.86 178.85 174.29 177.79
  Q 173.73 176.71 172.51 176.75"
/>
<path stroke="#008eff" vector-effect="non-scaling-stroke" d="
  M 171.54 454.25
  Q 170.80 455.08 170.34 455.85
  Q 169.89 456.60 169.89 457.75
  Q 169.88 462.98 169.88 468.24
  Q 169.89 468.64 169.49 468.64
  L 168.30 468.64
  A 0.27 0.26 -22.3 0 0 168.11 469.09
  L 168.38 469.37
  Q 168.60 469.58 168.30 469.63
  Q 167.95 469.70 167.96 470.01"
/>
<path stroke="#00b3ff" vector-effect="non-scaling-stroke" d="
  M 63.47 264.29
  Q 63.08 264.52 63.11 264.79
  Q 63.14 264.98 63.33 265.04
  Q 63.51 265.10 63.62 265.23
  Q 63.83 265.45 63.54 265.54
  Q 63.12 265.67 63.12 266.00
  Q 63.12 273.50 63.12 281.00
  Q 63.12 281.29 62.91 281.36
  Q 62.62 281.45 62.62 281.75
  L 62.62 285.82
  Q 62.62 286.24 62.22 286.39
  Q 62.03 286.46 61.86 286.44
  Q 61.52 286.40 61.31 286.12
  Q 60.48 285.00 59.11 284.24"
/>
<path stroke="#00b3ff" vector-effect="non-scaling-stroke" d="
  M 59.63 361.90
  Q 60.15 363.80 60.14 365.00
  Q 60.11 374.88 60.12 384.96
  Q 60.13 386.53 59.21 385.26
  Q 59.06 385.04 57.43 384.80"
/>
<path stroke="#009fff" vector-effect="non-scaling-stroke" d="
  M 122.27 427.98
  L 122.13 449.15
  Q 122.12 451.26 120.72 449.68
  Q 119.93 448.80 119.43 449.28"
/>
<path stroke="#007eff" vector-effect="non-scaling-stroke" d="
  M 204.05 460.14
  Q 204.15 451.30 204.11 443.00
  Q 204.10 442.44 203.96 442.06
  Q 203.58 441.03 203.06 441.52"
/>
<path stroke="#009fff" vector-effect="non-scaling-stroke" d="
  M 142.23 325.78
  Q 141.61 333.73 141.90 341.38
  Q 141.44 341.75 141.73 342.59
  A 0.30 0.29 49.9 0 0 142.27 342.64
  Q 142.49 342.23 142.24 343.02"
/>
<path stroke="#e246a3" vector-effect="non-scaling-stroke" d="
  M 343.34 31.47
  L 342.83 48.20
  Q 342.82 48.56 342.47 48.47
  L 342.09 48.38
  Q 341.16 48.15 341.88 48.78
  L 342.25 49.10"
/>
<path stroke="#ec378a" vector-effect="non-scaling-stroke" d="
  M 302.29 55.84
  L 301.26 55.69
  Q 300.87 55.63 300.87 55.23
  L 300.88 38.76
  Q 300.88 38.29 300.42 38.18
  Q 299.89 38.06 299.71 37.69"
/>
<path stroke="#ec378a" vector-effect="non-scaling-stroke" d="
  M 296.43 442.32
  Q 294.93 452.16 296.64 461.09"
/>
<path stroke="#d856be" vector-effect="non-scaling-stroke" d="
  M 377.35 48.53
  Q 376.69 48.54 376.45 48.68
  Q 376.20 48.82 376.45 48.96
  Q 376.59 49.04 376.78 49.10
  Q 376.80 49.11 376.51 49.13
  Q 376.37 49.14 376.23 49.14
  A 0.34 0.33 90.0 0 0 375.90 49.48
  L 376.04 72.78"
/>
<path stroke="#d856be" vector-effect="non-scaling-stroke" d="
  M 381.15 329.59
  L 380.86 305.71"
/>
<path stroke="#e246a3" vector-effect="non-scaling-stroke" d="
  M 325.75 347.56
  L 326.52 331.71"
/>
<path stroke="#e246a3" vector-effect="non-scaling-stroke" d="
  M 328.47 470.02
  Q 328.85 469.54 329.45 469.51
  A 0.13 0.13 0.0 0 0 329.51 469.27
  Q 329.37 469.21 329.22 469.16
  A 0.16 0.16 0.0 0 1 329.27 468.85
  L 329.75 468.85
  A 0.35 0.35 0.0 0 0 330.10 468.50
  L 330.10 455.72
  A 0.61 0.57 -68.6 0 0 329.93 455.30
  L 329.69 455.06
  Q 329.46 454.84 329.77 454.75
  Q 330.04 454.68 330.20 454.57"
/>
<path stroke="#cb6adf" vector-effect="non-scaling-stroke" d="
  M 435.51 112.90
  Q 434.80 112.92 434.30 113.18
  Q 433.82 113.43 433.82 113.97
  L 433.52 135.60"
/>
<path stroke="#d856be" vector-effect="non-scaling-stroke" d="
  M 375.02 163.89
  Q 374.81 163.23 376.13 163.41
  A 0.01 0.00 16.8 0 0 376.14 163.41
  Q 376.14 163.40 376.14 163.40
  Q 376.12 163.37 376.10 163.37
  Q 375.90 163.35 375.90 163.23
  Q 375.91 148.24 375.89 133.25
  C 375.88 132.52 376.20 131.28 376.09 130.83
  Q 375.95 130.28 375.35 130.26"
/>
<path stroke="#cb6adf" vector-effect="non-scaling-stroke" d="
  M 437.22 389.10
  L 436.86 368.56
  Q 436.86 368.22 436.59 368.02
  L 436.28 367.79
  Q 436.04 367.61 436.22 367.37
  Q 436.48 367.02 436.28 366.97"
/>
<path stroke="#cb6adf" vector-effect="non-scaling-stroke" d="
  M 429.17 295.08
  L 428.72 272.98"
/>
<path stroke="#e246a3" vector-effect="non-scaling-stroke" d="
  M 325.47 178.23
  L 324.70 158.05"
/>
<path stroke="#d35dcb" vector-effect="non-scaling-stroke" d="
  M 401.48 396.63
  L 402.61 397.16
  A 0.67 0.66 12.7 0 1 403.00 397.76
  L 403.00 410.78
  Q 403.00 411.38 403.55 411.62
  L 404.61 412.10"
/>
<path stroke="#d856be" vector-effect="non-scaling-stroke" d="
  M 374.47 454.04
  Q 373.42 453.24 372.87 454.42
  Q 372.70 454.80 372.32 454.63
  Q 372.10 454.53 372.10 454.25
  Q 372.14 446.13 372.10 438.00
  Q 372.09 437.50 371.60 437.42
  Q 370.89 437.30 370.28 437.50"
/>
</g>
<path fill="#0097ff" d="
  M 170.56 30.59
  Q 169.00 39.45 170.46 48.14
  Q 158.37 47.52 148.54 51.33
  Q 143.34 53.34 134.63 59.73
  Q 133.35 50.58 133.87 41.55
  Q 133.89 41.25 133.75 40.99
  Q 133.69 40.87 133.64 40.74
  Q 133.47 40.26 133.97 40.15
  Q 134.89 39.93 134.91 39.21
  Q 151.63 29.78 170.56 30.59
  Z"
/>
<path fill="#e73e96" d="
  M 343.34 31.47
  L 342.83 48.20
  Q 342.82 48.56 342.47 48.47
  L 342.09 48.38
  Q 341.16 48.15 341.88 48.78
  L 342.25 49.10
  C 328.39 46.59 314.24 48.23 302.29 55.84
  L 301.26 55.69
  Q 300.87 55.63 300.87 55.23
  L 300.88 38.76
  Q 300.88 38.29 300.42 38.18
  Q 299.89 38.06 299.71 37.69
  Q 311.52 31.67 324.00 30.73
  Q 333.54 30.02 343.34 31.47
  Z"
/>
<path fill="#0085ff" d="
  M 170.56 30.59
  Q 189.40 30.87 204.49 40.38
  L 204.17 58.94
  Q 204.16 59.44 203.69 59.61
  Q 203.02 59.86 202.82 60.54
  Q 189.06 48.32 170.46 48.14
  Q 169.00 39.45 170.56 30.59
  Z"
/>
<path fill="#dd4eb0" d="
  M 343.34 31.47
  Q 362.96 35.45 377.35 48.53
  Q 376.69 48.54 376.45 48.68
  Q 376.20 48.82 376.45 48.96
  Q 376.59 49.04 376.78 49.10
  Q 376.80 49.11 376.51 49.13
  Q 376.37 49.14 376.23 49.14
  A 0.34 0.33 90.0 0 0 375.90 49.48
  L 376.04 72.78
  C 368.37 61.18 356.46 52.11 342.25 49.10
  L 341.88 48.78
  Q 341.16 48.15 342.09 48.38
  L 342.47 48.47
  Q 342.82 48.56 342.83 48.20
  L 343.34 31.47
  Z"
/>
<path fill="#f1307d" d="
  M 299.71 37.69
  Q 299.89 38.06 300.42 38.18
  Q 300.88 38.29 300.88 38.76
  L 300.87 55.23
  Q 300.87 55.63 301.26 55.69
  L 302.29 55.84
  C 289.99 64.03 281.31 75.98 278.35 90.24
  Q 277.27 95.46 277.27 104.86
  Q 277.22 250.64 277.27 396.41
  C 277.27 408.25 278.79 417.27 284.17 426.75
  Q 289.06 435.38 296.43 442.32
  Q 294.93 452.16 296.64 461.09
  Q 285.50 454.86 277.54 445.22
  Q 264.79 429.79 262.01 410.21
  Q 261.25 404.83 261.25 390.25
  Q 261.25 245.75 261.25 101.25
  Q 261.25 88.42 266.08 74.76
  Q 275.10 49.26 299.71 37.69
  Z"
/>
<path fill="#00a7ff" d="
  M 134.91 39.21
  Q 134.89 39.93 133.97 40.15
  Q 133.47 40.26 133.64 40.74
  Q 133.69 40.87 133.75 40.99
  Q 133.89 41.25 133.87 41.55
  Q 133.35 50.58 134.63 59.73
  Q 119.13 71.96 115.76 92.27
  Q 112.99 108.95 120.26 124.15
  C 124.29 132.57 130.49 139.50 138.01 145.03
  C 140.82 147.10 143.31 146.94 146.55 147.22
  Q 146.18 147.41 146.09 147.92
  Q 146.01 148.41 145.56 148.17
  Q 145.26 148.01 144.87 148.23
  Q 144.68 148.33 144.82 148.48
  Q 144.94 148.62 144.94 148.75
  Q 144.86 154.94 144.87 161.19
  Q 144.87 161.64 144.43 161.69
  Q 143.46 161.80 143.58 162.81
  Q 129.80 160.87 118.54 165.35
  C 109.28 169.03 104.64 171.86 97.67 178.41
  C 91.08 184.59 81.05 178.86 84.12 170.07
  Q 84.93 167.76 87.81 165.15
  C 95.60 158.10 105.56 151.47 115.93 149.01
  Q 117.64 148.60 116.48 147.27
  Q 101.70 130.27 99.14 107.76
  Q 99.07 107.17 98.55 107.45
  Q 86.40 113.86 76.53 123.28
  Q 72.92 126.73 68.73 131.18
  Q 67.51 123.40 68.35 116.00
  Q 68.49 114.76 68.31 111.68
  A 0.31 0.31 0.0 0 0 68.01 111.39
  L 67.62 111.38
  A 0.27 0.26 -68.6 0 1 67.43 110.94
  Q 68.71 109.51 69.24 107.73
  C 78.92 98.86 88.71 93.34 99.73 87.79
  Q 100.20 87.55 100.31 87.04
  Q 104.74 65.52 118.96 50.99
  Q 124.81 45.01 134.91 39.21
  Z"
/>
<path fill="#0076ff" d="
  M 204.49 40.38
  Q 225.91 53.09 233.54 74.48
  C 237.24 84.84 238.26 96.02 238.26 108.32
  Q 238.23 249.66 238.26 391.00
  Q 238.26 404.75 237.27 410.94
  Q 232.27 442.10 204.05 460.14
  Q 204.15 451.30 204.11 443.00
  Q 204.10 442.44 203.96 442.06
  Q 203.58 441.03 203.06 441.52
  Q 216.99 428.68 220.57 410.91
  Q 221.75 405.06 221.75 390.99
  Q 221.76 246.12 221.74 101.25
  Q 221.74 76.76 202.82 60.54
  Q 203.02 59.86 203.69 59.61
  Q 204.16 59.44 204.17 58.94
  L 204.49 40.38
  Z"
/>
<path fill="#d35dcb" d="
  M 377.35 48.53
  C 388.88 58.28 395.73 72.61 398.89 87.15
  A 0.86 0.86 0.0 0 0 399.38 87.76
  Q 419.80 96.93 435.51 112.90
  Q 434.80 112.92 434.30 113.18
  Q 433.82 113.43 433.82 113.97
  L 433.52 135.60
  Q 419.52 117.72 400.35 107.75
  Q 399.85 107.49 399.82 108.05
  C 399.05 122.36 391.53 137.10 382.36 147.54
  Q 381.22 148.85 382.90 149.26
  C 392.95 151.69 402.64 158.00 410.25 164.78
  Q 413.83 167.97 414.88 170.45
  C 418.39 178.76 407.32 185.04 401.06 178.62
  C 393.75 171.13 385.37 166.97 375.02 163.89
  Q 374.81 163.23 376.13 163.41
  A 0.01 0.00 16.8 0 0 376.14 163.41
  Q 376.14 163.40 376.14 163.40
  Q 376.12 163.37 376.10 163.37
  Q 375.90 163.35 375.90 163.23
  Q 375.91 148.24 375.89 133.25
  C 375.88 132.52 376.20 131.28 376.09 130.83
  Q 375.95 130.28 375.35 130.26
  Q 392.11 101.73 376.04 72.78
  L 375.90 49.48
  A 0.34 0.33 -90.0 0 1 376.23 49.14
  Q 376.37 49.14 376.51 49.13
  Q 376.80 49.11 376.78 49.10
  Q 376.59 49.04 376.45 48.96
  Q 376.20 48.82 376.45 48.68
  Q 376.69 48.54 377.35 48.53
  Z"
/>
<path fill="#00bfff" d="
  M 69.24 107.73
  Q 68.71 109.51 67.43 110.94
  A 0.27 0.26 -68.6 0 0 67.62 111.38
  L 68.01 111.39
  A 0.31 0.31 0.0 0 1 68.31 111.68
  Q 68.49 114.76 68.35 116.00
  Q 67.51 123.40 68.73 131.18
  Q 49.09 154.62 44.39 184.51
  Q 39.64 214.77 51.88 244.01
  Q 52.20 244.78 53.73 247.54
  C 54.59 249.08 55.09 250.94 55.96 252.39
  Q 59.57 258.40 63.47 264.29
  Q 63.08 264.52 63.11 264.79
  Q 63.14 264.98 63.33 265.04
  Q 63.51 265.10 63.62 265.23
  Q 63.83 265.45 63.54 265.54
  Q 63.12 265.67 63.12 266.00
  Q 63.12 273.50 63.12 281.00
  Q 63.12 281.29 62.91 281.36
  Q 62.62 281.45 62.62 281.75
  L 62.62 285.82
  Q 62.62 286.24 62.22 286.39
  Q 62.03 286.46 61.86 286.44
  Q 61.52 286.40 61.31 286.12
  Q 60.48 285.00 59.11 284.24
  L 47.15 268.72
  A 0.61 0.61 0.0 0 0 46.10 268.89
  C 42.87 277.91 42.10 286.64 41.31 296.02
  Q 40.34 307.41 42.25 318.50
  C 44.88 333.75 50.70 349.02 59.63 361.90
  Q 60.15 363.80 60.14 365.00
  Q 60.11 374.88 60.12 384.96
  Q 60.13 386.53 59.21 385.26
  Q 59.06 385.04 57.43 384.80
  Q 49.00 375.10 42.31 363.98
  Q 27.69 339.67 26.00 311.23
  Q 25.58 304.25 25.55 297.25
  C 25.48 279.96 29.59 264.82 36.79 249.22
  Q 37.05 248.68 36.80 248.13
  C 29.08 230.91 26.36 213.37 27.28 194.50
  C 28.94 160.15 43.84 130.59 69.24 107.73
  Z"
/>
<path fill="#c376f3" d="
  M 435.51 112.90
  Q 464.82 142.23 470.54 183.28
  C 473.73 206.19 471.23 226.62 462.57 248.00
  Q 462.38 248.47 462.56 248.95
  C 465.97 257.66 469.63 266.58 471.43 275.76
  C 474.20 289.88 474.97 304.22 472.80 318.43
  Q 467.82 350.98 447.13 377.88
  Q 442.06 384.47 437.22 389.10
  L 436.86 368.56
  Q 436.86 368.22 436.59 368.02
  L 436.28 367.79
  Q 436.04 367.61 436.22 367.37
  Q 436.48 367.02 436.28 366.97
  Q 458.41 337.77 458.16 300.75
  C 458.08 289.63 456.48 279.20 452.81 268.88
  A 0.27 0.27 0.0 0 0 452.33 268.82
  Q 443.02 283.18 429.17 295.08
  L 428.72 272.98
  Q 452.32 246.29 455.21 209.88
  Q 456.96 187.82 451.58 170.17
  Q 446.19 152.45 433.52 135.60
  L 433.82 113.97
  Q 433.82 113.43 434.30 113.18
  Q 434.80 112.92 435.51 112.90
  Z"
/>
<path fill="#dd4eb0" d="
  M 375.35 130.26
  Q 375.95 130.28 376.09 130.83
  C 376.20 131.28 375.88 132.52 375.89 133.25
  Q 375.91 148.24 375.90 163.23
  Q 375.90 163.35 376.10 163.37
  Q 376.12 163.37 376.14 163.40
  Q 376.14 163.40 376.14 163.41
  A 0.01 0.00 16.8 0 1 376.13 163.41
  Q 374.81 163.23 375.02 163.89
  C 356.93 159.93 338.80 165.02 325.47 178.23
  L 324.70 158.05
  Q 339.67 148.09 358.38 146.65
  A 2.87 2.85 23.3 0 0 359.93 146.04
  C 365.53 141.57 371.34 136.33 375.35 130.26
  Z"
/>
<path fill="#0097ff" d="
  M 146.55 147.22
  Q 161.91 149.88 175.06 158.48
  L 174.87 177.65
  Q 174.86 178.85 174.29 177.79
  Q 173.73 176.71 172.51 176.75
  Q 159.87 165.60 143.58 162.81
  Q 143.46 161.80 144.43 161.69
  Q 144.87 161.64 144.87 161.19
  Q 144.86 154.94 144.94 148.75
  Q 144.94 148.62 144.82 148.48
  Q 144.68 148.33 144.87 148.23
  Q 145.26 148.01 145.56 148.17
  Q 146.01 148.41 146.09 147.92
  Q 146.18 147.41 146.55 147.22
  Z"
/>
<path fill="#e73e96" d="
  M 324.70 158.05
  L 325.47 178.23
  Q 314.46 188.70 310.81 205.01
  C 306.71 223.36 313.28 244.50 328.04 256.45
  C 334.22 261.46 332.24 270.14 324.51 271.55
  C 319.91 272.39 312.72 264.60 310.10 261.41
  C 297.43 245.96 290.92 226.41 293.82 206.56
  C 296.66 187.12 307.57 168.65 324.70 158.05
  Z"
/>
<path fill="#0085ff" d="
  M 175.06 158.48
  C 203.98 178.08 214.44 216.32 198.01 248.05
  C 193.60 256.56 187.17 264.54 179.45 270.19
  C 173.20 274.76 164.93 267.07 167.99 260.28
  Q 168.72 258.63 171.68 255.78
  C 180.42 247.36 186.92 236.72 188.60 224.31
  Q 192.37 196.39 172.51 176.75
  Q 173.73 176.71 174.29 177.79
  Q 174.86 178.85 174.87 177.65
  L 175.06 158.48
  Z"
/>
<path fill="#00a7ff" d="
  M 142.23 325.78
  Q 141.61 333.73 141.90 341.38
  Q 141.44 341.75 141.73 342.59
  A 0.30 0.29 49.9 0 0 142.27 342.64
  Q 142.49 342.23 142.24 343.02
  Q 119.79 335.19 106.00 316.32
  A 1.84 1.81 83.3 0 0 105.23 315.70
  Q 102.07 314.36 98.98 313.03
  Q 75.86 303.08 59.11 284.24
  Q 60.48 285.00 61.31 286.12
  Q 61.52 286.40 61.86 286.44
  Q 62.03 286.46 62.22 286.39
  Q 62.62 286.24 62.62 285.82
  L 62.62 281.75
  Q 62.62 281.45 62.91 281.36
  Q 63.12 281.29 63.12 281.00
  Q 63.12 273.50 63.12 266.00
  Q 63.12 265.67 63.54 265.54
  Q 63.83 265.45 63.62 265.23
  Q 63.51 265.10 63.33 265.04
  Q 63.14 264.98 63.11 264.79
  Q 63.08 264.52 63.47 264.29
  Q 71.69 275.36 81.01 282.96
  Q 83.98 285.38 93.20 292.05
  Q 93.67 292.39 93.58 291.82
  C 92.59 285.33 91.11 279.03 90.96 272.49
  C 90.87 268.40 91.71 263.90 92.20 259.58
  C 93.15 251.19 98.16 233.09 105.50 229.24
  C 110.42 226.66 117.14 232.12 116.50 237.73
  Q 116.32 239.38 114.20 243.49
  C 104.97 261.35 104.72 282.95 115.07 300.55
  Q 115.42 301.13 117.80 304.19
  C 119.11 305.88 119.74 307.88 121.02 309.41
  Q 129.98 320.19 142.23 325.78
  Z"
/>
<path fill="#d35dcb" d="
  M 428.72 272.98
  L 429.17 295.08
  Q 424.52 299.47 418.09 303.61
  Q 406.95 310.79 401.25 312.94
  Q 397.38 314.41 393.61 316.12
  Q 393.16 316.32 392.87 316.73
  Q 388.17 323.47 381.15 329.59
  L 380.86 305.71
  Q 380.45 305.13 381.93 304.04
  Q 382.81 303.40 383.23 302.66
  Q 395.25 281.76 390.44 258.13
  C 389.65 254.30 387.73 250.27 386.31 245.99
  C 385.51 243.59 383.40 241.71 382.75 239.55
  C 381.09 234.07 386.65 228.47 391.69 228.80
  C 398.84 229.28 404.50 248.44 405.92 254.26
  Q 408.22 263.68 407.99 273.44
  C 407.85 279.12 406.42 285.85 405.45 292.02
  Q 405.36 292.56 405.82 292.26
  Q 418.16 284.23 428.72 272.98
  Z"
/>
<path fill="#dd4eb0" d="
  M 380.86 305.71
  L 381.15 329.59
  Q 370.46 338.34 360.85 342.07
  Q 350.21 346.19 338.87 347.54
  Q 331.66 348.39 325.75 347.56
  L 326.52 331.71
  C 348.69 331.96 368.09 324.69 380.86 305.71
  Z"
/>
<path fill="#0097ff" d="
  M 142.23 325.78
  C 154.49 331.25 167.46 332.91 180.32 330.00
  C 182.90 329.42 186.42 328.60 188.77 329.98
  C 191.27 331.45 193.81 333.84 193.56 336.99
  C 193.25 341.02 191.47 343.52 187.46 344.84
  C 181.63 346.76 177.23 347.01 172.45 347.42
  C 162.17 348.31 151.83 346.64 142.24 343.02
  Q 142.49 342.23 142.27 342.64
  A 0.30 0.29 49.9 0 1 141.73 342.59
  Q 141.44 341.75 141.90 341.38
  Q 141.61 333.73 142.23 325.78
  Z"
/>
<path fill="#e73e96" d="
  M 326.52 331.71
  L 325.75 347.56
  Q 317.68 347.33 311.24 344.98
  C 301.58 341.45 305.53 327.95 315.02 329.48
  C 317.84 329.93 320.42 330.88 323.36 331.02
  Q 325.35 331.12 326.52 331.71
  Z"
/>
<path fill="#00a7ff" d="
  M 122.27 427.98
  L 122.13 449.15
  Q 122.12 451.26 120.72 449.68
  Q 119.93 448.80 119.43 449.28
  Q 105.37 435.31 100.93 416.01
  Q 100.67 414.90 99.06 414.18
  Q 75.37 403.61 57.43 384.80
  Q 59.06 385.04 59.21 385.26
  Q 60.13 386.53 60.12 384.96
  Q 60.11 374.88 60.14 365.00
  Q 60.15 363.80 59.63 361.90
  C 70.66 377.49 82.38 388.07 98.07 396.65
  A 0.52 0.52 0.0 0 0 98.84 396.23
  C 99.53 386.28 102.36 375.01 107.89 366.49
  C 110.52 362.42 113.62 360.78 118.27 362.42
  C 121.64 363.61 122.86 366.73 122.98 370.04
  Q 123.05 371.83 121.80 374.27
  Q 118.37 380.94 117.17 385.39
  Q 111.00 408.21 122.27 427.98
  Z"
/>
<path fill="#d35dcb" d="
  M 401.48 396.63
  L 402.61 397.16
  A 0.67 0.66 12.7 0 1 403.00 397.76
  L 403.00 410.78
  Q 403.00 411.38 403.55 411.62
  L 404.61 412.10
  L 398.67 414.96
  Q 398.21 415.18 398.10 415.68
  Q 392.78 438.81 374.47 454.04
  Q 373.42 453.24 372.87 454.42
  Q 372.70 454.80 372.32 454.63
  Q 372.10 454.53 372.10 454.25
  Q 372.14 446.13 372.10 438.00
  Q 372.09 437.50 371.60 437.42
  Q 370.89 437.30 370.28 437.50
  C 385.08 419.32 388.65 396.51 377.58 375.42
  Q 376.02 372.45 376.00 370.55
  C 375.91 361.90 386.04 358.97 390.73 366.19
  C 396.60 375.22 399.26 385.85 400.33 396.36
  Q 400.39 396.95 400.96 396.78
  L 401.48 396.63
  Z"
/>
<path fill="#d35dcb" d="
  M 436.28 366.97
  Q 436.48 367.02 436.22 367.37
  Q 436.04 367.61 436.28 367.79
  L 436.59 368.02
  Q 436.86 368.22 436.86 368.56
  L 437.22 389.10
  Q 423.04 402.74 404.61 412.10
  L 403.55 411.62
  Q 403.00 411.38 403.00 410.78
  L 403.00 397.76
  A 0.67 0.66 12.7 0 0 402.61 397.16
  L 401.48 396.63
  Q 421.94 385.47 436.28 366.97
  Z"
/>
<path fill="#0097ff" d="
  M 122.27 427.98
  Q 127.12 436.11 130.58 439.17
  C 142.14 449.44 155.92 455.10 171.54 454.25
  Q 170.80 455.08 170.34 455.85
  Q 169.89 456.60 169.89 457.75
  Q 169.88 462.98 169.88 468.24
  Q 169.89 468.64 169.49 468.64
  L 168.30 468.64
  A 0.27 0.26 -22.3 0 0 168.11 469.09
  L 168.38 469.37
  Q 168.60 469.58 168.30 469.63
  Q 167.95 469.70 167.96 470.01
  C 149.71 470.64 131.74 462.19 119.43 449.28
  Q 119.93 448.80 120.72 449.68
  Q 122.12 451.26 122.13 449.15
  L 122.27 427.98
  Z"
/>
<path fill="#dd4eb0" d="
  M 370.28 437.50
  Q 370.89 437.30 371.60 437.42
  Q 372.09 437.50 372.10 438.00
  Q 372.14 446.13 372.10 454.25
  Q 372.10 454.53 372.32 454.63
  Q 372.70 454.80 372.87 454.42
  Q 373.42 453.24 374.47 454.04
  Q 354.90 470.69 328.47 470.02
  Q 328.85 469.54 329.45 469.51
  A 0.13 0.13 0.0 0 0 329.51 469.27
  Q 329.37 469.21 329.22 469.16
  A 0.16 0.16 0.0 0 1 329.27 468.85
  L 329.75 468.85
  A 0.35 0.35 0.0 0 0 330.10 468.50
  L 330.10 455.72
  A 0.61 0.57 -68.6 0 0 329.93 455.30
  L 329.69 455.06
  Q 329.46 454.84 329.77 454.75
  Q 330.04 454.68 330.20 454.57
  C 345.40 454.90 359.66 448.16 370.28 437.50
  Z"
/>
<path fill="#0085ff" d="
  M 203.06 441.52
  Q 203.58 441.03 203.96 442.06
  Q 204.10 442.44 204.11 443.00
  Q 204.15 451.30 204.05 460.14
  Q 187.89 470.21 167.96 470.01
  Q 167.95 469.70 168.30 469.63
  Q 168.60 469.58 168.38 469.37
  L 168.11 469.09
  A 0.27 0.26 -22.3 0 1 168.30 468.64
  L 169.49 468.64
  Q 169.89 468.64 169.88 468.24
  Q 169.88 462.98 169.89 457.75
  Q 169.89 456.60 170.34 455.85
  Q 170.80 455.08 171.54 454.25
  Q 189.29 453.03 203.06 441.52
  Z"
/>
<path fill="#e73e96" d="
  M 296.43 442.32
  Q 311.70 454.38 330.20 454.57
  Q 330.04 454.68 329.77 454.75
  Q 329.46 454.84 329.69 455.06
  L 329.93 455.30
  A 0.61 0.57 -68.6 0 1 330.10 455.72
  L 330.10 468.50
  A 0.35 0.35 0.0 0 1 329.75 468.85
  L 329.27 468.85
  A 0.16 0.16 0.0 0 0 329.22 469.16
  Q 329.37 469.21 329.51 469.27
  A 0.13 0.13 0.0 0 1 329.45 469.51
  Q 328.85 469.54 328.47 470.02
  Q 312.03 469.62 296.64 461.09
  Q 294.93 452.16 296.43 442.32
  Z"
/>
</svg>
