<svg width="48" height="43" viewBox="0 0 48 43" fill="none" xmlns="http://www.w3.org/2000/svg">
<path d="M32.9199 32.9999C32.9741 33.0358 33.0363 33.0576 33.101 33.0633C33.1658 33.069 33.2309 33.0585 33.2905 33.0327C33.3501 33.0069 33.4023 32.9666 33.4424 32.9154C33.4824 32.8643 33.5091 32.804 33.5199 32.7399L37.8499 6.78992C37.8622 6.72133 37.8558 6.65073 37.8315 6.58544C37.8071 6.52016 37.7658 6.46258 37.7117 6.41868C37.6576 6.37479 37.5927 6.34619 37.5238 6.33586C37.4549 6.32552 37.3845 6.33383 37.3199 6.35992L9.66994 17.9199C9.60251 17.9481 9.54438 17.9948 9.50216 18.0544C9.45994 18.1141 9.43535 18.1844 9.43118 18.2574C9.42701 18.3304 9.44343 18.4031 9.47857 18.4672C9.51372 18.5313 9.56617 18.5842 9.62994 18.6199L19.7499 24.2799C19.8375 24.3304 19.902 24.4128 19.9299 24.5099L22.8499 34.7499C22.8704 34.8199 22.91 34.8829 22.9644 34.9315C23.0187 34.9801 23.0857 35.0125 23.1575 35.025C23.2294 35.0375 23.3033 35.0296 23.3709 35.0022C23.4385 34.9748 23.4971 34.9289 23.5399 34.8699L27.2099 29.6999C27.2684 29.6182 27.3561 29.5622 27.4549 29.5435C27.5536 29.5249 27.6557 29.5451 27.7399 29.5999L32.9199 32.9999Z" stroke="white" stroke-width="2"/>
<path d="M33.4894 32.6684L28.3094 29.2684C28.2252 29.2136 28.1231 29.1934 28.0243 29.212C27.9256 29.2306 27.8378 29.2866 27.7794 29.3684L24.1094 34.5384C24.0665 34.5974 24.008 34.6432 23.9404 34.6706C23.8728 34.6981 23.7989 34.706 23.727 34.6935C23.6551 34.681 23.5882 34.6486 23.5338 34.5999C23.4795 34.5513 23.4398 34.4884 23.4194 34.4184L20.4994 24.1784C20.4715 24.0813 20.4069 23.9988 20.3194 23.9484L10.1994 18.2884C10.1356 18.2527 10.0832 18.1997 10.048 18.1356C10.0129 18.0715 9.99647 17.9989 10.0006 17.9259C10.0048 17.8529 10.0294 17.7826 10.0716 17.7229C10.1138 17.6632 10.172 17.6166 10.2394 17.5884L37.8894 6.02838C37.954 6.00229 38.0244 5.99398 38.0933 6.00432C38.1622 6.01465 38.2271 6.04325 38.2812 6.08714C38.3353 6.13103 38.3766 6.18861 38.4009 6.2539C38.4252 6.31918 38.4316 6.38979 38.4194 6.45838L34.0894 32.4084C34.0786 32.4724 34.0519 32.5328 34.0118 32.5839C33.9717 32.635 33.9195 32.6753 33.8599 32.7011C33.8003 32.727 33.7352 32.7375 33.6705 32.7318C33.6058 32.7261 33.5435 32.7043 33.4894 32.6684ZM24.4194 22.2284C24.0594 22.5884 24.0927 22.9117 24.5194 23.1984L31.2694 27.7084C31.6161 27.9417 31.8261 27.8484 31.8994 27.4284L34.3494 12.8484C34.4161 12.415 34.2961 12.3517 33.9894 12.6584L24.4194 22.2284ZM29.4294 12.6284L16.6194 18.0284C16.1794 18.215 16.1427 18.4084 16.5094 18.6084L20.9694 20.9584C21.0725 21.0132 21.1907 21.033 21.3061 21.015C21.4214 20.997 21.5279 20.942 21.6094 20.8584L29.6294 12.9184C30.0694 12.485 30.0027 12.3884 29.4294 12.6284ZM24.3394 27.2584C24.3061 27.5317 24.3261 27.7917 24.3994 28.0384C24.5527 28.5584 24.7827 28.595 25.0894 28.1484L25.3594 27.7484C25.5527 27.4684 25.5261 27.2117 25.2794 26.9784C25.0061 26.725 24.6994 26.5717 24.3594 26.5184C24.2727 26.505 24.2194 26.5384 24.1994 26.6184C24.1661 26.7517 24.1894 26.875 24.2694 26.9884C24.3271 27.0658 24.3522 27.1627 24.3394 27.2584Z" fill="#FEFFFE"/>
</svg>
