<?xml version="1.0" encoding="UTF-8" standalone="no"?>
<!DOCTYPE svg PUBLIC "-//W3C//DTD SVG 1.1//EN" "http://www.w3.org/Graphics/SVG/1.1/DTD/svg11.dtd">
<svg xmlns="http://www.w3.org/2000/svg" version="1.1" viewBox="0.00 0.00 512.00 512.00">
<g stroke-width="2.00" fill="none" stroke-linecap="butt">
<path stroke="#b6c044" vector-effect="non-scaling-stroke" d="
  M 467.14 256.27
  A 0.33 0.33 0.0 0 0 467.14 255.73
  L 256.23 100.31
  A 0.33 0.33 0.0 0 0 255.83 100.31
  L 44.91 255.73
  A 0.33 0.33 0.0 0 0 44.91 256.27
  L 255.83 411.68
  A 0.33 0.33 0.0 0 0 256.23 411.68
  L 467.14 256.27"
/>
<path stroke="#f8e59a" vector-effect="non-scaling-stroke" d="
  M 174.13 220.85
  Q 166.84 238.04 166.97 257.08"
/>
<path stroke="#80967c" vector-effect="non-scaling-stroke" d="
  M 166.97 257.08
  C 167.71 306.99 209.98 347.70 260.01 345.01
  Q 302.86 342.70 328.93 307.14"
/>
<path stroke="#f8e59a" vector-effect="non-scaling-stroke" d="
  M 328.93 307.14
  Q 339.67 291.66 343.40 273.08"
/>
<path stroke="#80967c" vector-effect="non-scaling-stroke" d="
  M 343.40 273.08
  Q 349.59 238.98 332.93 211.08
  C 294.97 147.55 204.39 154.30 174.13 220.85"
/>
<path stroke="#78a1d2" vector-effect="non-scaling-stroke" d="
  M 343.40 273.08
  C 299.02 227.55 236.64 208.47 174.13 220.85"
/>
<path stroke="#78a1d2" vector-effect="non-scaling-stroke" d="
  M 328.93 307.14
  C 289.79 258.31 227.09 239.44 166.97 257.08"
/>
</g>
<path fill="#6da544" d="
  M 248.39 0.00
  L 263.48 0.00
  C 333.76 2.38 400.04 33.00 446.27 84.74
  Q 508.15 154.00 512.00 248.62
  L 512.00 263.48
  C 509.56 333.70 479.04 399.90 427.39 446.13
  Q 357.97 508.26 263.14 512.00
  L 248.52 512.00
  C 178.47 509.56 112.36 479.18 66.12 427.64
  Q 3.93 358.35 0.00 263.64
  L 0.00 248.23
  Q 4.09 151.86 68.12 82.11
  C 114.14 31.98 179.42 2.42 248.39 0.00
  Z
  M 467.14 256.27
  A 0.33 0.33 0.0 0 0 467.14 255.73
  L 256.23 100.31
  A 0.33 0.33 0.0 0 0 255.83 100.31
  L 44.91 255.73
  A 0.33 0.33 0.0 0 0 44.91 256.27
  L 255.83 411.68
  A 0.33 0.33 0.0 0 0 256.23 411.68
  L 467.14 256.27
  Z"
/>
<path fill="#ffda44" d="
  M 467.14 256.27
  L 256.23 411.68
  A 0.33 0.33 0.0 0 1 255.83 411.68
  L 44.91 256.27
  A 0.33 0.33 0.0 0 1 44.91 255.73
  L 255.83 100.31
  A 0.33 0.33 0.0 0 1 256.23 100.31
  L 467.14 255.73
  A 0.33 0.33 0.0 0 1 467.14 256.27
  Z
  M 174.13 220.85
  Q 166.84 238.04 166.97 257.08
  C 167.71 306.99 209.98 347.70 260.01 345.01
  Q 302.86 342.70 328.93 307.14
  Q 339.67 291.66 343.40 273.08
  Q 349.59 238.98 332.93 211.08
  C 294.97 147.55 204.39 154.30 174.13 220.85
  Z"
/>
<path fill="#0052b4" d="
  M 343.40 273.08
  C 299.02 227.55 236.64 208.47 174.13 220.85
  C 204.39 154.30 294.97 147.55 332.93 211.08
  Q 349.59 238.98 343.40 273.08
  Z"
/>
<path fill="#f0f0f0" d="
  M 343.40 273.08
  Q 339.67 291.66 328.93 307.14
  C 289.79 258.31 227.09 239.44 166.97 257.08
  Q 166.84 238.04 174.13 220.85
  C 236.64 208.47 299.02 227.55 343.40 273.08
  Z"
/>
<path fill="#0052b4" d="
  M 328.93 307.14
  Q 302.86 342.70 260.01 345.01
  C 209.98 347.70 167.71 306.99 166.97 257.08
  C 227.09 239.44 289.79 258.31 328.93 307.14
  Z"
/>
</svg>
