<?xml version="1.0" encoding="UTF-8" standalone="no"?>
<!DOCTYPE svg PUBLIC "-//W3C//DTD SVG 1.1//EN" "http://www.w3.org/Graphics/SVG/1.1/DTD/svg11.dtd">
<svg xmlns="http://www.w3.org/2000/svg" version="1.1" viewBox="0.00 0.00 512.00 512.00">
<g stroke-width="2.00" fill="none" stroke-linecap="butt">
<path stroke="#78a1d2" vector-effect="non-scaling-stroke" d="
  M 256.03 0.00
  L 256.21 55.67"
/>
<path stroke="#6c296e" vector-effect="non-scaling-stroke" d="
  M 256.21 55.67
  L 256.00 122.48"
/>
<path stroke="#78a1d2" vector-effect="non-scaling-stroke" d="
  M 256.00 122.48
  L 256.00 189.23"
/>
<path stroke="#6c296e" vector-effect="non-scaling-stroke" d="
  M 256.00 189.23
  L 255.94 256.01"
/>
<path stroke="#78a1d2" vector-effect="non-scaling-stroke" d="
  M 255.94 256.01
  L 0.00 256.00"
/>
<path stroke="#78a1d2" vector-effect="non-scaling-stroke" d="
  M 1.94 224.12
  L 14.51 214.98
  Q 14.99 214.63 15.46 214.97
  L 35.94 229.83
  Q 36.67 230.36 36.39 229.51
  L 28.50 205.25
  A 0.52 0.52 0.0 0 1 28.68 204.68
  L 49.28 189.74
  Q 50.11 189.14 49.08 189.14
  L 23.75 189.15
  A 0.66 0.65 80.7 0 1 23.13 188.70
  L 15.98 166.75"
/>
<path stroke="#78a1d2" vector-effect="non-scaling-stroke" d="
  M 24.33 146.90
  L 35.94 155.25
  Q 36.53 155.68 36.31 154.98
  L 29.98 135.73"
/>
<path stroke="#78a1d2" vector-effect="non-scaling-stroke" d="
  M 36.42 124.34
  L 49.34 115.02
  Q 49.97 114.57 49.19 114.55
  L 42.65 114.39"
/>
<path stroke="#78a1d2" vector-effect="non-scaling-stroke" d="
  M 91.91 59.46
  L 85.36 80.27
  Q 85.03 81.34 85.93 80.68
  L 106.36 65.82
  Q 106.82 65.48 107.27 65.82
  L 127.67 80.62
  Q 128.49 81.21 128.18 80.25
  L 120.35 56.13
  A 0.56 0.56 0.0 0 1 120.55 55.50
  L 141.12 40.59
  Q 141.98 39.97 140.92 39.95
  L 118.89 39.69"
/>
<path stroke="#78a1d2" vector-effect="non-scaling-stroke" d="
  M 207.23 40.21
  A 0.53 0.53 0.0 0 1 206.72 39.84
  L 199.14 15.65
  A 0.53 0.53 0.0 0 0 198.12 15.65
  L 190.54 39.84
  A 0.53 0.53 0.0 0 1 190.03 40.21
  L 164.67 39.96
  A 0.53 0.53 0.0 0 0 164.36 40.92
  L 185.02 55.61
  A 0.53 0.53 0.0 0 1 185.22 56.21
  L 177.14 80.24
  A 0.53 0.53 0.0 0 0 177.96 80.83
  L 198.31 65.72
  A 0.53 0.53 0.0 0 1 198.95 65.72
  L 219.30 80.83
  A 0.53 0.53 0.0 0 0 220.12 80.24
  L 212.04 56.21
  A 0.53 0.53 0.0 0 1 212.24 55.61
  L 232.90 40.92
  A 0.53 0.53 0.0 0 0 232.59 39.96
  L 207.23 40.21"
/>
<path stroke="#78a1d2" vector-effect="non-scaling-stroke" d="
  M 115.37 114.75
  A 0.45 0.45 0.0 0 1 114.93 114.43
  L 107.24 89.97
  A 0.45 0.45 0.0 0 0 106.38 89.97
  L 98.69 114.43
  A 0.45 0.45 0.0 0 1 98.25 114.75
  L 72.60 114.50
  A 0.45 0.45 0.0 0 0 72.34 115.32
  L 93.23 130.20
  A 0.45 0.45 0.0 0 1 93.40 130.71
  L 85.24 155.03
  A 0.45 0.45 0.0 0 0 85.94 155.53
  L 106.54 140.26
  A 0.45 0.45 0.0 0 1 107.08 140.26
  L 127.68 155.53
  A 0.45 0.45 0.0 0 0 128.38 155.03
  L 120.22 130.71
  A 0.45 0.45 0.0 0 1 120.39 130.20
  L 141.28 115.32
  A 0.45 0.45 0.0 0 0 141.02 114.50
  L 115.37 114.75"
/>
<path stroke="#78a1d2" vector-effect="non-scaling-stroke" d="
  M 207.20 114.75
  A 0.45 0.45 0.0 0 1 206.76 114.43
  L 199.07 89.96
  A 0.45 0.45 0.0 0 0 198.21 89.96
  L 190.52 114.43
  A 0.45 0.45 0.0 0 1 190.08 114.75
  L 164.43 114.50
  A 0.45 0.45 0.0 0 0 164.16 115.32
  L 185.06 130.20
  A 0.45 0.45 0.0 0 1 185.23 130.71
  L 177.07 155.03
  A 0.45 0.45 0.0 0 0 177.76 155.54
  L 198.37 140.26
  A 0.45 0.45 0.0 0 1 198.91 140.26
  L 219.52 155.54
  A 0.45 0.45 0.0 0 0 220.21 155.03
  L 212.05 130.71
  A 0.45 0.45 0.0 0 1 212.22 130.20
  L 233.12 115.32
  A 0.45 0.45 0.0 0 0 232.85 114.50
  L 207.20 114.75"
/>
<path stroke="#78a1d2" vector-effect="non-scaling-stroke" d="
  M 207.18 189.32
  A 0.39 0.39 0.0 0 1 206.80 189.05
  L 199.03 164.49
  A 0.39 0.39 0.0 0 0 198.29 164.49
  L 190.52 189.05
  A 0.39 0.39 0.0 0 1 190.14 189.32
  L 164.38 189.12
  A 0.39 0.39 0.0 0 0 164.15 189.83
  L 185.11 204.81
  A 0.39 0.39 0.0 0 1 185.25 205.25
  L 177.10 229.69
  A 0.39 0.39 0.0 0 0 177.70 230.13
  L 198.43 214.82
  A 0.39 0.39 0.0 0 1 198.89 214.82
  L 219.62 230.13
  A 0.39 0.39 0.0 0 0 220.22 229.69
  L 212.07 205.25
  A 0.39 0.39 0.0 0 1 212.21 204.81
  L 233.17 189.83
  A 0.39 0.39 0.0 0 0 232.94 189.12
  L 207.18 189.32"
/>
<path stroke="#78a1d2" vector-effect="non-scaling-stroke" d="
  M 115.35 189.32
  A 0.39 0.39 0.0 0 1 114.97 189.05
  L 107.20 164.48
  A 0.39 0.39 0.0 0 0 106.46 164.48
  L 98.69 189.05
  A 0.39 0.39 0.0 0 1 98.31 189.32
  L 72.54 189.12
  A 0.39 0.39 0.0 0 0 72.31 189.83
  L 93.28 204.81
  A 0.39 0.39 0.0 0 1 93.42 205.25
  L 85.27 229.70
  A 0.39 0.39 0.0 0 0 85.87 230.13
  L 106.60 214.82
  A 0.39 0.39 0.0 0 1 107.06 214.82
  L 127.79 230.13
  A 0.39 0.39 0.0 0 0 128.39 229.70
  L 120.24 205.25
  A 0.39 0.39 0.0 0 1 120.38 204.81
  L 141.35 189.83
  A 0.39 0.39 0.0 0 0 141.12 189.12
  L 115.35 189.32"
/>
<path stroke="#e4788c" vector-effect="non-scaling-stroke" d="
  M 415.29 55.62
  L 256.21 55.67"
/>
<path stroke="#e4788c" vector-effect="non-scaling-stroke" d="
  M 474.52 122.47
  L 256.00 122.48"
/>
<path stroke="#e4788c" vector-effect="non-scaling-stroke" d="
  M 503.25 189.22
  L 256.00 189.23"
/>
<path stroke="#e4788c" vector-effect="non-scaling-stroke" d="
  M 512.00 256.01
  L 255.94 256.01"
/>
<path stroke="#e4788c" vector-effect="non-scaling-stroke" d="
  M 503.19 322.77
  L 8.74 322.77"
/>
<path stroke="#e4788c" vector-effect="non-scaling-stroke" d="
  M 474.46 389.51
  L 37.52 389.51"
/>
<path stroke="#e4788c" vector-effect="non-scaling-stroke" d="
  M 415.20 456.33
  L 96.69 456.32"
/>
</g>
<path fill="#0052b4" d="
  M 243.12 0.00
  L 256.03 0.00
  L 256.21 55.67
  L 256.00 122.48
  L 256.00 189.23
  L 255.94 256.01
  L 0.00 256.00
  L 0.00 243.00
  L 1.94 224.12
  L 14.51 214.98
  Q 14.99 214.63 15.46 214.97
  L 35.94 229.83
  Q 36.67 230.36 36.39 229.51
  L 28.50 205.25
  A 0.52 0.52 0.0 0 1 28.68 204.68
  L 49.28 189.74
  Q 50.11 189.14 49.08 189.14
  L 23.75 189.15
  A 0.66 0.65 80.7 0 1 23.13 188.70
  L 15.98 166.75
  Q 19.33 156.88 24.33 146.90
  L 35.94 155.25
  Q 36.53 155.68 36.31 154.98
  L 29.98 135.73
  L 36.42 124.34
  L 49.34 115.02
  Q 49.97 114.57 49.19 114.55
  L 42.65 114.39
  Q 63.12 83.30 91.91 59.46
  L 85.36 80.27
  Q 85.03 81.34 85.93 80.68
  L 106.36 65.82
  Q 106.82 65.48 107.27 65.82
  L 127.67 80.62
  Q 128.49 81.21 128.18 80.25
  L 120.35 56.13
  A 0.56 0.56 0.0 0 1 120.55 55.50
  L 141.12 40.59
  Q 141.98 39.97 140.92 39.95
  L 118.89 39.69
  Q 169.58 7.58 229.27 1.38
  Q 236.18 0.66 243.12 0.00
  Z
  M 207.23 40.21
  A 0.53 0.53 0.0 0 1 206.72 39.84
  L 199.14 15.65
  A 0.53 0.53 0.0 0 0 198.12 15.65
  L 190.54 39.84
  A 0.53 0.53 0.0 0 1 190.03 40.21
  L 164.67 39.96
  A 0.53 0.53 0.0 0 0 164.36 40.92
  L 185.02 55.61
  A 0.53 0.53 0.0 0 1 185.22 56.21
  L 177.14 80.24
  A 0.53 0.53 0.0 0 0 177.96 80.83
  L 198.31 65.72
  A 0.53 0.53 0.0 0 1 198.95 65.72
  L 219.30 80.83
  A 0.53 0.53 0.0 0 0 220.12 80.24
  L 212.04 56.21
  A 0.53 0.53 0.0 0 1 212.24 55.61
  L 232.90 40.92
  A 0.53 0.53 0.0 0 0 232.59 39.96
  L 207.23 40.21
  Z
  M 115.37 114.75
  A 0.45 0.45 0.0 0 1 114.93 114.43
  L 107.24 89.97
  A 0.45 0.45 0.0 0 0 106.38 89.97
  L 98.69 114.43
  A 0.45 0.45 0.0 0 1 98.25 114.75
  L 72.60 114.50
  A 0.45 0.45 0.0 0 0 72.34 115.32
  L 93.23 130.20
  A 0.45 0.45 0.0 0 1 93.40 130.71
  L 85.24 155.03
  A 0.45 0.45 0.0 0 0 85.94 155.53
  L 106.54 140.26
  A 0.45 0.45 0.0 0 1 107.08 140.26
  L 127.68 155.53
  A 0.45 0.45 0.0 0 0 128.38 155.03
  L 120.22 130.71
  A 0.45 0.45 0.0 0 1 120.39 130.20
  L 141.28 115.32
  A 0.45 0.45 0.0 0 0 141.02 114.50
  L 115.37 114.75
  Z
  M 207.20 114.75
  A 0.45 0.45 0.0 0 1 206.76 114.43
  L 199.07 89.96
  A 0.45 0.45 0.0 0 0 198.21 89.96
  L 190.52 114.43
  A 0.45 0.45 0.0 0 1 190.08 114.75
  L 164.43 114.50
  A 0.45 0.45 0.0 0 0 164.16 115.32
  L 185.06 130.20
  A 0.45 0.45 0.0 0 1 185.23 130.71
  L 177.07 155.03
  A 0.45 0.45 0.0 0 0 177.76 155.54
  L 198.37 140.26
  A 0.45 0.45 0.0 0 1 198.91 140.26
  L 219.52 155.54
  A 0.45 0.45 0.0 0 0 220.21 155.03
  L 212.05 130.71
  A 0.45 0.45 0.0 0 1 212.22 130.20
  L 233.12 115.32
  A 0.45 0.45 0.0 0 0 232.85 114.50
  L 207.20 114.75
  Z
  M 207.18 189.32
  A 0.39 0.39 0.0 0 1 206.80 189.05
  L 199.03 164.49
  A 0.39 0.39 0.0 0 0 198.29 164.49
  L 190.52 189.05
  A 0.39 0.39 0.0 0 1 190.14 189.32
  L 164.38 189.12
  A 0.39 0.39 0.0 0 0 164.15 189.83
  L 185.11 204.81
  A 0.39 0.39 0.0 0 1 185.25 205.25
  L 177.10 229.69
  A 0.39 0.39 0.0 0 0 177.70 230.13
  L 198.43 214.82
  A 0.39 0.39 0.0 0 1 198.89 214.82
  L 219.62 230.13
  A 0.39 0.39 0.0 0 0 220.22 229.69
  L 212.07 205.25
  A 0.39 0.39 0.0 0 1 212.21 204.81
  L 233.17 189.83
  A 0.39 0.39 0.0 0 0 232.94 189.12
  L 207.18 189.32
  Z
  M 115.35 189.32
  A 0.39 0.39 0.0 0 1 114.97 189.05
  L 107.20 164.48
  A 0.39 0.39 0.0 0 0 106.46 164.48
  L 98.69 189.05
  A 0.39 0.39 0.0 0 1 98.31 189.32
  L 72.54 189.12
  A 0.39 0.39 0.0 0 0 72.31 189.83
  L 93.28 204.81
  A 0.39 0.39 0.0 0 1 93.42 205.25
  L 85.27 229.70
  A 0.39 0.39 0.0 0 0 85.87 230.13
  L 106.60 214.82
  A 0.39 0.39 0.0 0 1 107.06 214.82
  L 127.79 230.13
  A 0.39 0.39 0.0 0 0 128.39 229.70
  L 120.24 205.25
  A 0.39 0.39 0.0 0 1 120.38 204.81
  L 141.35 189.83
  A 0.39 0.39 0.0 0 0 141.12 189.12
  L 115.35 189.32
  Z"
/>
<path fill="#f0f0f0" d="
  M 256.03 0.00
  L 263.47 0.00
  Q 348.57 3.22 415.29 55.62
  L 256.21 55.67
  L 256.03 0.00
  Z"
/>
<path fill="#f0f0f0" d="
  M 207.23 40.21
  L 232.59 39.96
  A 0.53 0.53 0.0 0 1 232.90 40.92
  L 212.24 55.61
  A 0.53 0.53 0.0 0 0 212.04 56.21
  L 220.12 80.24
  A 0.53 0.53 0.0 0 1 219.30 80.83
  L 198.95 65.72
  A 0.53 0.53 0.0 0 0 198.31 65.72
  L 177.96 80.83
  A 0.53 0.53 0.0 0 1 177.14 80.24
  L 185.22 56.21
  A 0.53 0.53 0.0 0 0 185.02 55.61
  L 164.36 40.92
  A 0.53 0.53 0.0 0 1 164.67 39.96
  L 190.03 40.21
  A 0.53 0.53 0.0 0 0 190.54 39.84
  L 198.12 15.65
  A 0.53 0.53 0.0 0 1 199.14 15.65
  L 206.72 39.84
  A 0.53 0.53 0.0 0 0 207.23 40.21
  Z"
/>
<path fill="#f0f0f0" d="
  M 118.89 39.69
  L 140.92 39.95
  Q 141.98 39.97 141.12 40.59
  L 120.55 55.50
  A 0.56 0.56 0.0 0 0 120.35 56.13
  L 128.18 80.25
  Q 128.49 81.21 127.67 80.62
  L 107.27 65.82
  Q 106.82 65.48 106.36 65.82
  L 85.93 80.68
  Q 85.03 81.34 85.36 80.27
  L 91.91 59.46
  Q 104.77 49.07 118.89 39.69
  Z"
/>
<path fill="#d80027" d="
  M 415.29 55.62
  Q 415.73 55.68 416.60 56.38
  Q 451.02 84.17 474.52 122.47
  L 256.00 122.48
  L 256.21 55.67
  L 415.29 55.62
  Z"
/>
<path fill="#f0f0f0" d="
  M 115.37 114.75
  L 141.02 114.50
  A 0.45 0.45 0.0 0 1 141.28 115.32
  L 120.39 130.20
  A 0.45 0.45 0.0 0 0 120.22 130.71
  L 128.38 155.03
  A 0.45 0.45 0.0 0 1 127.68 155.53
  L 107.08 140.26
  A 0.45 0.45 0.0 0 0 106.54 140.26
  L 85.94 155.53
  A 0.45 0.45 0.0 0 1 85.24 155.03
  L 93.40 130.71
  A 0.45 0.45 0.0 0 0 93.23 130.20
  L 72.34 115.32
  A 0.45 0.45 0.0 0 1 72.60 114.50
  L 98.25 114.75
  A 0.45 0.45 0.0 0 0 98.69 114.43
  L 106.38 89.97
  A 0.45 0.45 0.0 0 1 107.24 89.97
  L 114.93 114.43
  A 0.45 0.45 0.0 0 0 115.37 114.75
  Z"
/>
<path fill="#f0f0f0" d="
  M 207.20 114.75
  L 232.85 114.50
  A 0.45 0.45 0.0 0 1 233.12 115.32
  L 212.22 130.20
  A 0.45 0.45 0.0 0 0 212.05 130.71
  L 220.21 155.03
  A 0.45 0.45 0.0 0 1 219.52 155.54
  L 198.91 140.26
  A 0.45 0.45 0.0 0 0 198.37 140.26
  L 177.76 155.54
  A 0.45 0.45 0.0 0 1 177.07 155.03
  L 185.23 130.71
  A 0.45 0.45 0.0 0 0 185.06 130.20
  L 164.16 115.32
  A 0.45 0.45 0.0 0 1 164.43 114.50
  L 190.08 114.75
  A 0.45 0.45 0.0 0 0 190.52 114.43
  L 198.21 89.96
  A 0.45 0.45 0.0 0 1 199.07 89.96
  L 206.76 114.43
  A 0.45 0.45 0.0 0 0 207.20 114.75
  Z"
/>
<path fill="#f0f0f0" d="
  M 42.65 114.39
  L 49.19 114.55
  Q 49.97 114.57 49.34 115.02
  L 36.42 124.34
  L 42.65 114.39
  Z"
/>
<path fill="#f0f0f0" d="
  M 474.52 122.47
  Q 493.27 153.50 503.25 189.22
  L 256.00 189.23
  L 256.00 122.48
  L 474.52 122.47
  Z"
/>
<path fill="#f0f0f0" d="
  M 29.98 135.73
  L 36.31 154.98
  Q 36.53 155.68 35.94 155.25
  L 24.33 146.90
  L 29.98 135.73
  Z"
/>
<path fill="#f0f0f0" d="
  M 207.18 189.32
  L 232.94 189.12
  A 0.39 0.39 0.0 0 1 233.17 189.83
  L 212.21 204.81
  A 0.39 0.39 0.0 0 0 212.07 205.25
  L 220.22 229.69
  A 0.39 0.39 0.0 0 1 219.62 230.13
  L 198.89 214.82
  A 0.39 0.39 0.0 0 0 198.43 214.82
  L 177.70 230.13
  A 0.39 0.39 0.0 0 1 177.10 229.69
  L 185.25 205.25
  A 0.39 0.39 0.0 0 0 185.11 204.81
  L 164.15 189.83
  A 0.39 0.39 0.0 0 1 164.38 189.12
  L 190.14 189.32
  A 0.39 0.39 0.0 0 0 190.52 189.05
  L 198.29 164.49
  A 0.39 0.39 0.0 0 1 199.03 164.49
  L 206.80 189.05
  A 0.39 0.39 0.0 0 0 207.18 189.32
  Z"
/>
<path fill="#f0f0f0" d="
  M 115.35 189.32
  L 141.12 189.12
  A 0.39 0.39 0.0 0 1 141.35 189.83
  L 120.38 204.81
  A 0.39 0.39 0.0 0 0 120.24 205.25
  L 128.39 229.70
  A 0.39 0.39 0.0 0 1 127.79 230.13
  L 107.06 214.82
  A 0.39 0.39 0.0 0 0 106.60 214.82
  L 85.87 230.13
  A 0.39 0.39 0.0 0 1 85.27 229.70
  L 93.42 205.25
  A 0.39 0.39 0.0 0 0 93.28 204.81
  L 72.31 189.83
  A 0.39 0.39 0.0 0 1 72.54 189.12
  L 98.31 189.32
  A 0.39 0.39 0.0 0 0 98.69 189.05
  L 106.46 164.48
  A 0.39 0.39 0.0 0 1 107.20 164.48
  L 114.97 189.05
  A 0.39 0.39 0.0 0 0 115.35 189.32
  Z"
/>
<path fill="#f0f0f0" d="
  M 15.98 166.75
  L 23.13 188.70
  A 0.66 0.65 80.7 0 0 23.75 189.15
  L 49.08 189.14
  Q 50.11 189.14 49.28 189.74
  L 28.68 204.68
  A 0.52 0.52 0.0 0 0 28.50 205.25
  L 36.39 229.51
  Q 36.67 230.36 35.94 229.83
  L 15.46 214.97
  Q 14.99 214.63 14.51 214.98
  L 1.94 224.12
  Q 5.76 194.49 15.98 166.75
  Z"
/>
<path fill="#d80027" d="
  M 256.00 189.23
  L 503.25 189.22
  C 508.24 207.17 510.54 224.34 512.00 243.13
  L 512.00 256.01
  L 255.94 256.01
  L 256.00 189.23
  Z"
/>
<path fill="#f0f0f0" d="
  M 0.00 256.00
  L 255.94 256.01
  L 512.00 256.01
  L 512.00 263.49
  Q 510.84 293.66 503.19 322.77
  L 8.74 322.77
  Q 1.18 293.76 0.00 263.62
  L 0.00 256.00
  Z"
/>
<path fill="#d80027" d="
  M 8.74 322.77
  L 503.19 322.77
  Q 502.79 324.75 501.10 330.33
  Q 491.40 362.31 474.46 389.51
  L 37.52 389.51
  Q 18.16 358.35 8.74 322.77
  Z"
/>
<path fill="#f0f0f0" d="
  M 37.52 389.51
  L 474.46 389.51
  Q 450.34 428.45 415.20 456.33
  L 96.69 456.32
  Q 61.43 428.08 37.52 389.51
  Z"
/>
<path fill="#d80027" d="
  M 96.69 456.32
  L 415.20 456.33
  Q 414.56 457.06 414.28 457.29
  Q 358.21 501.17 287.62 510.24
  C 282.16 510.94 275.28 511.31 269.13 512.00
  L 242.75 512.00
  Q 225.93 510.49 221.00 509.79
  Q 156.46 500.61 104.03 462.20
  Q 100.27 459.44 96.69 456.32
  Z"
/>
</svg>
