<?xml version="1.0" encoding="UTF-8" standalone="no"?>
<!DOCTYPE svg PUBLIC "-//W3C//DTD SVG 1.1//EN" "http://www.w3.org/Graphics/SVG/1.1/DTD/svg11.dtd">
<svg xmlns="http://www.w3.org/2000/svg" version="1.1" viewBox="0.00 0.00 500.00 200.00">
<g stroke-width="2.00" fill="none" stroke-linecap="butt">
<path stroke="#0094ff" vector-effect="non-scaling-stroke" d="
  M 74.80 152.11
  Q 75.94 149.61 75.34 148.66"
/>
<path stroke="#0094ff" vector-effect="non-scaling-stroke" d="
  M 74.21 51.90
  Q 74.15 49.63 73.30 47.91"
/>
<path stroke="#0094ff" vector-effect="non-scaling-stroke" d="
  M 75.26 76.17
  L 75.33 77.04
  Q 75.37 77.52 75.09 77.91
  Q 74.69 78.48 74.45 79.78"
/>
<path stroke="#e346a3" vector-effect="non-scaling-stroke" d="
  M 118.77 47.57
  L 118.70 51.69"
/>
<path stroke="#e346a3" vector-effect="non-scaling-stroke" d="
  M 122.25 147.32
  Q 121.83 147.49 122.17 148.10
  Q 122.29 148.31 122.66 148.62
  Q 123.36 149.22 124.11 150.48"
/>
<path stroke="#cd67db" vector-effect="non-scaling-stroke" d="
  M 135.61 62.42
  Q 134.55 66.56 133.41 65.83"
/>
<path stroke="#e346a3" vector-effect="non-scaling-stroke" d="
  M 123.06 78.91
  L 122.71 75.28"
/>
<path stroke="#cd67db" vector-effect="non-scaling-stroke" d="
  M 139.86 134.85
  L 138.28 131.52"
/>
<path stroke="#cd67db" vector-effect="non-scaling-stroke" d="
  M 137.49 112.53
  Q 136.60 110.59 135.29 109.44"
/>
<path stroke="#e346a3" vector-effect="non-scaling-stroke" d="
  M 128.31 118.93
  Q 127.26 118.06 127.37 117.08
  Q 127.42 116.63 127.07 116.37
  L 126.26 115.76"
/>
</g>
<path fill="#0079ff" d="
  M 74.80 152.11
  Q 75.94 149.61 75.34 148.66
  Q 85.36 148.78 88.79 141.40
  Q 90.26 138.24 90.26 130.87
  Q 90.26 98.91 90.23 66.96
  C 90.23 61.44 89.54 57.59 85.42 54.33
  Q 80.65 50.55 74.21 51.90
  Q 74.15 49.63 73.30 47.91
  C 81.86 46.03 90.84 50.39 93.39 58.98
  Q 94.09 61.34 94.09 67.10
  Q 94.06 100.92 94.08 134.75
  C 94.09 145.76 85.76 153.40 74.80 152.11
  Z"
/>
<path fill="#f1307e" d="
  M 118.77 47.57
  L 118.70 51.69
  C 110.39 50.62 103.50 56.29 103.50 64.75
  Q 103.49 98.33 103.50 131.90
  Q 103.50 137.43 104.11 139.55
  C 106.37 147.34 114.91 150.53 122.25 147.32
  Q 121.83 147.49 122.17 148.10
  Q 122.29 148.31 122.66 148.62
  Q 123.36 149.22 124.11 150.48
  C 115.30 154.57 104.63 151.19 100.94 142.00
  Q 99.77 139.11 99.77 133.31
  Q 99.73 98.28 99.76 63.25
  C 99.77 53.34 108.90 46.50 118.77 47.57
  Z"
/>
<path fill="#d55bc7" d="
  M 118.77 47.57
  Q 129.72 49.56 132.70 60.39
  Q 132.84 60.89 133.29 61.14
  L 135.61 62.42
  Q 134.55 66.56 133.41 65.83
  Q 132.12 71.21 129.05 75.15
  Q 128.67 75.63 129.26 75.83
  Q 133.50 77.22 136.55 80.49
  A 1.48 1.47 45.6 0 1 136.54 82.52
  L 136.25 82.82
  A 1.92 1.92 0.0 0 1 133.53 82.86
  Q 129.16 78.66 123.06 78.91
  L 122.71 75.28
  C 133.44 69.20 130.32 54.66 118.70 51.69
  L 118.77 47.57
  Z"
/>
<path fill="#00afff" d="
  M 73.30 47.91
  Q 74.15 49.63 74.21 51.90
  C 64.06 54.63 60.68 68.35 69.72 74.48
  C 71.28 75.54 73.38 75.33 75.26 76.17
  L 75.33 77.04
  Q 75.37 77.52 75.09 77.91
  Q 74.69 78.48 74.45 79.78
  Q 66.36 76.97 60.16 82.84
  A 1.90 1.90 0.0 0 1 57.39 82.68
  L 57.23 82.49
  A 1.66 1.65 -42.7 0 1 57.32 80.27
  Q 60.37 77.13 64.52 75.75
  A 0.42 0.42 0.0 0 0 64.71 75.09
  Q 61.55 71.22 60.75 66.23
  A 0.48 0.48 0.0 0 0 60.02 65.91
  C 43.81 76.49 42.48 98.79 58.87 109.52
  Q 59.45 109.90 59.30 109.23
  Q 57.69 101.97 61.39 95.57
  A 1.64 1.64 0.0 0 1 63.46 94.88
  L 63.79 95.03
  A 1.74 1.74 0.0 0 1 64.65 97.40
  C 58.50 109.65 68.25 121.77 81.51 118.73
  A 1.42 1.42 0.0 0 1 83.20 119.73
  L 83.32 120.17
  A 1.90 1.90 0.0 0 1 81.86 122.54
  Q 70.94 124.74 63.69 117.14
  Q 62.27 115.64 60.49 114.82
  Q 53.01 111.37 48.45 104.53
  A 0.40 0.40 0.0 0 0 47.73 104.65
  C 44.53 116.74 49.41 128.56 60.13 134.71
  A 0.37 0.37 0.0 0 0 60.69 134.41
  C 60.82 132.78 62.44 124.57 65.63 126.82
  A 1.90 1.90 0.0 0 1 66.30 129.09
  Q 60.41 143.67 75.34 148.66
  Q 75.94 149.61 74.80 152.11
  Q 64.27 150.05 61.13 139.54
  A 1.11 1.09 4.7 0 0 60.55 138.87
  C 45.54 131.99 38.76 115.26 45.56 100.01
  A 1.21 1.21 0.0 0 0 45.59 99.10
  C 39.79 83.92 46.08 68.34 60.49 61.28
  Q 60.94 61.06 61.06 60.57
  Q 63.51 50.81 73.30 47.91
  Z"
/>
<path fill="#c573ef" d="
  M 135.61 62.42
  C 148.34 70.36 153.63 84.59 148.30 98.83
  Q 148.12 99.31 148.27 99.79
  Q 148.77 101.38 149.34 102.92
  C 153.33 113.72 149.20 127.91 139.86 134.85
  L 138.28 131.52
  C 145.36 125.06 149.52 114.15 145.92 104.78
  A 0.33 0.32 -38.5 0 0 145.34 104.72
  Q 142.29 109.26 137.49 112.53
  Q 136.60 110.59 135.29 109.44
  C 137.08 107.98 139.05 106.51 140.47 104.76
  C 150.82 92.03 147.64 74.37 133.41 65.83
  Q 134.55 66.56 135.61 62.42
  Z"
/>
<path fill="#081f59" d="
  M 320.74 80.27
  L 324.15 80.25
  Q 325.30 80.25 325.30 81.40
  L 325.30 86.99
  Q 325.30 88.04 324.26 88.04
  L 320.84 88.06
  Q 320.25 88.07 320.25 88.66
  L 320.25 110.50
  A 0.50 0.50 0.0 0 1 319.75 111.00
  L 311.19 111.00
  Q 310.85 111.00 310.85 110.66
  L 310.85 88.69
  Q 310.85 88.02 310.19 88.03
  L 308.27 88.05
  Q 307.48 88.06 307.48 87.27
  L 307.48 81.01
  Q 307.48 80.26 308.24 80.26
  L 310.24 80.26
  Q 310.73 80.26 310.79 79.77
  Q 310.96 78.37 311.13 77.02
  C 312.01 69.69 318.44 67.38 324.95 67.85
  Q 325.19 67.87 325.19 68.10
  L 325.20 75.67
  Q 325.20 75.88 324.98 75.86
  Q 320.50 75.30 320.21 79.71
  A 0.53 0.52 2.0 0 0 320.74 80.27
  Z"
/>
<path fill="#081f59" d="
  M 168.76 85.46
  Q 168.68 94.48 168.79 103.50
  C 168.84 107.58 173.72 106.84 176.24 106.73
  A 0.28 0.28 0.0 0 1 176.53 107.01
  L 176.61 110.54
  Q 176.61 110.84 176.31 110.88
  C 169.09 111.83 163.88 110.61 163.78 102.51
  Q 163.68 93.98 163.75 85.44
  Q 163.76 84.93 163.25 84.94
  L 160.26 84.97
  A 0.46 0.45 89.4 0 1 159.80 84.51
  L 159.80 81.24
  Q 159.80 80.78 160.26 80.79
  L 163.22 80.80
  Q 163.74 80.80 163.74 80.28
  L 163.73 73.76
  Q 163.73 73.24 164.24 73.24
  L 168.24 73.24
  Q 168.75 73.24 168.75 73.74
  L 168.74 80.27
  Q 168.73 80.80 169.27 80.80
  L 176.04 80.80
  Q 176.52 80.80 176.54 81.29
  L 176.62 84.54
  Q 176.63 84.95 176.21 84.95
  L 169.28 84.95
  Q 168.77 84.95 168.76 85.46
  Z"
/>
<path fill="#f1307e" d="
  M 122.71 75.28
  L 123.06 78.91
  C 111.47 80.66 107.04 94.14 116.11 101.69
  A 1.60 1.60 0.0 0 1 116.48 103.72
  L 116.30 104.04
  Q 115.25 105.88 113.62 104.54
  C 102.01 95.06 107.73 76.45 122.71 75.28
  Z"
/>
<path fill="#0079ff" d="
  M 75.26 76.17
  Q 84.01 79.46 86.07 88.50
  Q 87.86 96.39 81.05 103.97
  Q 79.77 105.40 78.13 104.42
  L 77.81 104.23
  A 1.45 1.45 0.0 0 1 77.55 101.93
  C 84.88 94.93 83.88 84.03 74.45 79.78
  Q 74.69 78.48 75.09 77.91
  Q 75.37 77.52 75.33 77.04
  L 75.26 76.17
  Z"
/>
<path fill="#081f59" d="
  M 359.9657 94.3067
  A 16.15 15.95 -4.7 0 1 345.1769 111.5264
  A 16.15 15.95 -4.7 0 1 327.7743 96.9533
  A 16.15 15.95 -4.7 0 1 342.5631 79.7336
  A 16.15 15.95 -4.7 0 1 359.9657 94.3067
  Z
  M 343.7888 103.3796
  A 7.75 6.51 90.6 0 0 350.3796 95.6982
  A 7.75 6.51 90.6 0 0 343.9512 87.8804
  A 7.75 6.51 90.6 0 0 337.3604 95.5618
  A 7.75 6.51 90.6 0 0 343.7888 103.3796
  Z"
/>
<path fill="#081f59" d="
  M 404.19 88.33
  C 396.44 86.02 394.68 94.94 396.95 99.96
  C 398.95 104.38 404.13 104.72 406.57 100.36
  Q 406.86 99.84 407.46 99.85
  L 416.06 99.86
  Q 416.62 99.86 416.49 100.41
  C 412.64 115.92 389.58 114.85 386.86 99.17
  Q 385.76 92.82 388.33 87.59
  C 394.04 75.98 413.14 77.59 416.49 90.41
  Q 416.73 91.36 415.75 91.36
  L 407.72 91.37
  Q 406.70 91.37 406.29 90.43
  Q 405.56 88.74 404.19 88.33
  Z"
/>
<path fill="#081f59" d="
  M 430.82 97.87
  Q 428.60 97.87 429.60 99.86
  L 430.34 101.34
  A 4.27 4.26 -12.2 0 0 434.01 103.70
  Q 438.16 103.86 439.00 102.29
  Q 439.80 100.80 441.49 100.80
  L 448.71 100.80
  Q 450.30 100.80 449.67 102.27
  C 446.24 110.13 438.24 112.96 430.27 110.58
  C 418.38 107.03 415.99 88.96 426.47 82.24
  C 431.46 79.04 438.79 79.06 443.88 82.13
  Q 451.64 86.80 450.60 97.34
  Q 450.55 97.88 450.00 97.88
  L 430.82 97.87
  Z
  M 429.63 92.75
  L 440.99 92.67
  A 0.16 0.16 0.0 0 0 441.15 92.51
  L 441.15 92.43
  A 5.66 5.08 -0.4 0 0 435.45 87.39
  L 435.09 87.39
  A 5.66 5.08 -0.4 0 0 429.47 92.51
  L 429.47 92.59
  A 0.16 0.16 0.0 0 0 429.63 92.75
  Z"
/>
<path fill="#081f59" d="
  M 374.90 84.69
  Q 377.96 80.46 383.20 79.98
  Q 383.99 79.91 383.99 80.70
  L 383.98 89.49
  Q 383.98 90.10 383.37 89.99
  C 378.28 89.03 374.17 91.24 374.22 96.75
  Q 374.29 103.98 374.32 110.69
  A 0.30 0.30 0.0 0 1 374.02 111.00
  L 365.23 111.00
  A 0.28 0.28 0.0 0 1 364.95 110.72
  L 364.95 81.28
  Q 364.95 80.26 365.97 80.26
  L 373.28 80.26
  Q 374.31 80.26 374.31 81.28
  L 374.29 84.49
  A 0.34 0.34 0.0 0 0 374.90 84.69
  Z"
/>
<path fill="#081f59" d="
  M 185.96 98.13
  C 186.80 108.19 199.84 110.89 204.13 101.95
  Q 204.25 101.70 204.52 101.70
  L 209.26 101.76
  A 0.21 0.21 0.0 0 1 209.46 102.03
  C 205.74 113.56 189.99 114.51 183.40 105.31
  C 177.53 97.12 181.21 83.11 191.69 80.76
  C 202.71 78.29 211.17 85.67 209.98 97.31
  Q 209.94 97.76 209.48 97.76
  L 186.30 97.76
  Q 185.93 97.76 185.96 98.13
  Z
  M 186.22 93.75
  L 204.90 93.71
  A 0.16 0.16 0.0 0 0 205.06 93.55
  L 205.06 93.45
  A 9.20 8.92 -0.1 0 0 195.84 84.55
  L 195.24 84.55
  A 9.20 8.92 -0.1 0 0 186.06 93.49
  L 186.06 93.59
  A 0.16 0.16 0.0 0 0 186.22 93.75
  Z"
/>
<path fill="#081f59" d="
  M 240.11 106.15
  Q 233.70 113.41 225.19 110.85
  C 210.22 106.34 211.71 81.57 228.12 80.42
  Q 235.60 79.90 240.07 85.63
  Q 240.46 86.13 240.45 85.49
  L 240.43 81.19
  Q 240.42 80.80 240.81 80.80
  L 245.02 80.80
  Q 245.49 80.80 245.49 81.27
  L 245.49 110.50
  Q 245.49 111.00 245.00 111.00
  L 240.82 111.00
  Q 240.41 110.99 240.41 110.58
  L 240.45 106.28
  Q 240.46 105.75 240.11 106.15
  Z
  M 230.2790 107.1797
  A 11.31 10.33 89.6 0 0 240.5297 95.7979
  A 11.31 10.33 89.6 0 0 230.1210 84.5603
  A 11.31 10.33 89.6 0 0 219.8703 95.9421
  A 11.31 10.33 89.6 0 0 230.2790 107.1797
  Z"
/>
<path fill="#081f59" d="
  M 279.96 86.24
  C 284.49 77.95 297.29 78.50 301.02 86.42
  Q 302.49 89.55 302.51 96.39
  Q 302.53 103.58 302.52 110.53
  Q 302.52 111.00 302.05 111.00
  L 297.99 111.00
  A 0.43 0.43 0.0 0 1 297.56 110.57
  Q 297.60 103.43 297.56 96.31
  Q 297.53 90.39 296.10 87.94
  C 292.47 81.73 281.32 84.12 281.01 92.76
  Q 280.69 101.78 280.78 110.47
  A 0.52 0.52 0.0 0 1 280.27 111.00
  L 276.27 111.00
  Q 275.79 111.00 275.80 110.53
  Q 275.83 102.23 275.79 93.51
  C 275.75 81.70 259.60 81.63 259.25 92.76
  Q 258.97 101.90 259.02 110.75
  Q 259.02 111.00 258.77 111.00
  L 254.25 111.00
  A 0.25 0.25 0.0 0 1 254.00 110.75
  L 254.00 81.52
  Q 254.00 80.80 254.72 80.80
  L 258.03 80.80
  Q 259.00 80.80 259.01 81.78
  L 259.02 84.23
  A 0.31 0.31 0.0 0 0 259.58 84.42
  C 264.79 77.77 275.11 79.44 279.35 86.26
  Q 279.67 86.77 279.96 86.24
  Z"
/>
<path fill="#d55bc7" d="
  M 135.29 109.44
  Q 136.60 110.59 137.49 112.53
  Q 135.39 113.82 133.04 114.96
  C 130.97 115.97 130.01 117.48 128.31 118.93
  Q 127.26 118.06 127.37 117.08
  Q 127.42 116.63 127.07 116.37
  L 126.26 115.76
  Q 134.29 107.50 129.16 97.63
  Q 128.31 96.00 129.94 95.14
  L 130.29 94.96
  A 1.54 1.54 0.0 0 1 132.32 95.53
  Q 136.14 101.96 134.45 109.28
  Q 134.29 109.98 134.91 109.64
  L 135.29 109.44
  Z"
/>
<path fill="#f1307e" d="
  M 126.26 115.76
  L 127.07 116.37
  Q 127.42 116.63 127.37 117.08
  Q 127.26 118.06 128.31 118.93
  Q 121.54 124.51 112.20 122.64
  Q 110.38 122.28 110.56 120.43
  L 110.61 119.92
  A 1.31 1.30 9.2 0 1 112.20 118.78
  Q 120.19 120.62 126.26 115.76
  Z"
/>
<path fill="#d55bc7" d="
  M 138.28 131.52
  L 139.86 134.85
  L 133.11 139.02
  Q 132.67 139.29 132.53 139.79
  Q 130.49 146.68 124.11 150.48
  Q 123.36 149.22 122.66 148.62
  Q 122.29 148.31 122.17 148.10
  Q 121.83 147.49 122.25 147.32
  Q 132.78 140.83 127.44 128.98
  A 1.53 1.53 0.0 0 1 127.96 127.09
  L 128.27 126.87
  Q 129.79 125.80 130.76 127.39
  Q 132.74 130.60 133.11 134.37
  Q 133.18 135.03 133.72 134.66
  L 138.28 131.52
  Z"
/>
<path fill="#00afff" d="
  M 164.84 129.15
  A 1.44 1.43 11.6 0 0 165.95 130.82
  C 167.40 131.13 169.13 131.42 170.05 132.59
  Q 171.26 134.14 169.43 135.44
  Q 167.03 137.13 163.94 135.05
  Q 163.78 134.93 163.90 134.77
  L 164.05 134.55
  Q 164.24 134.30 164.49 134.48
  Q 166.63 135.94 168.96 134.75
  A 1.22 1.22 0.0 0 0 168.75 132.50
  L 165.36 131.47
  A 1.83 1.83 0.0 0 1 164.18 130.37
  C 162.86 126.83 167.83 126.43 169.76 127.88
  Q 169.97 128.04 169.82 128.25
  Q 169.70 128.42 169.58 128.36
  Q 168.11 127.68 166.50 127.84
  Q 165.06 127.98 164.84 129.15
  Z"
/>
<path fill="#00afff" d="
  M 191.07 131.55
  A 4.60 4.60 0.0 0 1 186.47 136.15
  A 4.60 4.60 0.0 0 1 181.87 131.55
  A 4.60 4.60 0.0 0 1 186.47 126.95
  A 4.60 4.60 0.0 0 1 191.07 131.55
  Z
  M 190.21 131.54
  A 3.74 3.74 0.0 0 0 186.47 127.80
  A 3.74 3.74 0.0 0 0 182.73 131.54
  A 3.74 3.74 0.0 0 0 186.47 135.28
  A 3.74 3.74 0.0 0 0 190.21 131.54
  Z"
/>
<path fill="#00afff" d="
  M 204.75 135.10
  L 208.89 135.10
  A 0.40 0.40 0.0 0 1 208.90 135.90
  Q 206.50 135.95 204.10 135.89
  Q 203.49 135.88 203.49 135.27
  L 203.50 127.41
  Q 203.50 127.07 203.84 127.10
  L 204.13 127.12
  Q 204.38 127.14 204.38 127.39
  L 204.34 134.70
  A 0.40 0.40 0.0 0 0 204.75 135.10
  Z"
/>
<path fill="#00afff" d="
  M 222.08 133.33
  A 2.17 2.16 85.3 0 0 224.56 135.44
  C 228.79 134.82 227.37 130.62 227.65 127.40
  A 0.32 0.32 0.0 0 1 228.00 127.11
  Q 228.13 127.12 228.26 127.12
  Q 228.32 127.12 228.32 127.17
  C 228.70 131.15 229.12 137.68 223.27 135.69
  C 220.45 134.72 221.07 130.35 221.16 127.33
  Q 221.16 127.16 221.32 127.13
  L 221.61 127.07
  Q 221.98 126.99 221.99 127.36
  L 222.08 133.33
  Z"
/>
<path fill="#00afff" d="
  M 243.03 127.84
  L 240.32 127.97
  A 0.20 0.20 0.0 0 1 240.11 127.77
  L 240.13 127.29
  A 0.20 0.20 0.0 0 1 240.32 127.10
  L 246.99 127.08
  A 0.20 0.20 0.0 0 1 247.19 127.29
  L 247.18 127.66
  A 0.20 0.20 0.0 0 1 246.99 127.85
  L 244.25 127.91
  A 0.20 0.20 0.0 0 0 244.05 128.11
  L 244.12 135.64
  A 0.20 0.20 0.0 0 1 243.91 135.85
  L 243.38 135.83
  A 0.20 0.20 0.0 0 1 243.18 135.63
  L 243.24 128.04
  A 0.20 0.20 0.0 0 0 243.03 127.84
  Z"
/>
<rect fill="#00afff" x="-0.49" y="-4.44" transform="translate(259.51,131.53) rotate(0.1)" width="0.98" height="8.88" rx="0.39"/>
<path fill="#00afff" d="
  M 281.57 131.54
  A 4.61 4.61 0.0 0 1 276.96 136.15
  A 4.61 4.61 0.0 0 1 272.35 131.54
  A 4.61 4.61 0.0 0 1 276.96 126.93
  A 4.61 4.61 0.0 0 1 281.57 131.54
  Z
  M 280.70 131.55
  A 3.74 3.74 0.0 0 0 276.96 127.81
  A 3.74 3.74 0.0 0 0 273.22 131.55
  A 3.74 3.74 0.0 0 0 276.96 135.29
  A 3.74 3.74 0.0 0 0 280.70 131.55
  Z"
/>
<path fill="#00afff" d="
  M 300.51 133.75
  L 300.48 127.31
  A 0.22 0.22 0.0 0 1 300.70 127.09
  L 301.16 127.10
  A 0.22 0.22 0.0 0 1 301.38 127.32
  L 301.38 136.31
  A 0.22 0.22 0.0 0 1 300.99 136.45
  L 295.26 129.13
  A 0.22 0.22 0.0 0 0 294.87 129.27
  L 294.92 135.72
  A 0.22 0.22 0.0 0 1 294.70 135.94
  L 294.23 135.93
  A 0.22 0.22 0.0 0 1 294.01 135.71
  L 293.99 126.78
  A 0.22 0.22 0.0 0 1 294.38 126.64
  L 300.11 133.89
  A 0.22 0.22 0.0 0 0 300.51 133.75
  Z"
/>
<path fill="#00afff" d="
  M 314.83 129.15
  A 1.46 1.46 0.0 0 0 315.97 130.83
  C 317.40 131.13 319.13 131.45 320.04 132.60
  Q 321.27 134.13 319.43 135.44
  Q 317.09 137.10 313.96 135.08
  Q 313.79 134.97 313.90 134.81
  L 314.06 134.57
  Q 314.24 134.31 314.50 134.48
  Q 316.63 135.94 318.94 134.76
  A 1.23 1.23 0.0 0 0 318.73 132.49
  C 317.03 132.00 313.02 131.41 314.14 128.63
  C 314.96 126.59 318.05 126.89 319.68 127.60
  Q 319.90 127.69 319.87 127.92
  L 319.83 128.27
  Q 319.80 128.51 319.58 128.41
  Q 318.07 127.71 316.50 127.84
  Q 315.04 127.97 314.83 129.15
  Z"
/>
</svg>
