<svg width="408" height="106" viewBox="0 0 408 106" fill="none" xmlns="http://www.w3.org/2000/svg">
<path d="M31.8846 104.65C32.6446 102.983 32.8246 101.833 32.4246 101.2" stroke="#0094FF" stroke-width="2"/>
<path d="M31.2946 4.44007C31.2546 2.92674 30.9513 1.59674 30.3846 0.450073" stroke="#0094FF" stroke-width="2"/>
<path d="M32.3446 28.7101L32.4146 29.5801C32.4413 29.9001 32.3613 30.1901 32.1746 30.4501C31.9079 30.8301 31.6946 31.4534 31.5346 32.3201" stroke="#0094FF" stroke-width="2"/>
<path d="M75.8546 0.110107L75.7846 4.23011" stroke="#E346A3" stroke-width="2"/>
<path d="M79.3346 99.8601C79.0546 99.9734 79.0279 100.233 79.2546 100.64C79.3346 100.78 79.498 100.953 79.7446 101.16C80.2113 101.56 80.6946 102.18 81.1946 103.02" stroke="#E346A3" stroke-width="2"/>
<path d="M92.6946 14.9601C91.988 17.7201 91.2546 18.8568 90.4946 18.3701" stroke="#CD67DB" stroke-width="2"/>
<path d="M80.1446 31.4501L79.7946 27.8201" stroke="#E346A3" stroke-width="2"/>
<path d="M96.9446 87.3901L95.3646 84.0601" stroke="#CD67DB" stroke-width="2"/>
<path d="M94.5746 65.0701C93.9813 63.7768 93.2479 62.7468 92.3746 61.9801" stroke="#CD67DB" stroke-width="2"/>
<path d="M85.3946 71.47C84.6946 70.89 84.3813 70.2734 84.4546 69.62C84.4879 69.32 84.3879 69.0834 84.1546 68.91L83.3446 68.3" stroke="#E346A3" stroke-width="2"/>
<path d="M31.8846 104.65C32.6446 102.983 32.8246 101.833 32.4246 101.2C39.1046 101.28 43.5879 98.86 45.8746 93.94C46.8546 91.8333 47.3446 88.3233 47.3446 83.41C47.3446 62.1033 47.3346 40.8 47.3146 19.5C47.3146 13.98 46.6246 10.13 42.5046 6.87001C39.3246 4.35001 35.5879 3.54001 31.2946 4.44001C31.2546 2.92668 30.9513 1.59667 30.3846 0.450008C38.9446 -1.42999 47.9246 2.93001 50.4746 11.52C50.9413 13.0933 51.1746 15.8 51.1746 19.64C51.1546 42.1867 51.1513 64.7367 51.1646 87.29C51.1746 98.3 42.8446 105.94 31.8846 104.65Z" fill="#0079FF"/>
<path d="M75.8546 0.110102L75.7846 4.2301C67.4746 3.1601 60.5846 8.8301 60.5846 17.2901C60.5779 39.6768 60.5779 62.0601 60.5846 84.4401C60.5846 88.1268 60.7879 90.6768 61.1946 92.0901C63.4546 99.8801 71.9946 103.07 79.3346 99.8601C79.0546 99.9734 79.0279 100.233 79.2546 100.64C79.3346 100.78 79.498 100.953 79.7446 101.16C80.2113 101.56 80.6946 102.18 81.1946 103.02C72.3846 107.11 61.7146 103.73 58.0246 94.5401C57.2446 92.6134 56.8546 89.7168 56.8546 85.8501C56.8279 62.4968 56.8246 39.1434 56.8446 15.7901C56.8546 5.8801 65.9846 -0.959898 75.8546 0.110102Z" fill="#F1307E"/>
<path d="M75.8546 0.110107C83.1546 1.43677 87.798 5.71011 89.7846 12.9301C89.878 13.2634 90.0746 13.5134 90.3746 13.6801L92.6946 14.9601C91.988 17.7201 91.2546 18.8568 90.4946 18.3701C89.6346 21.9568 88.1813 25.0634 86.1346 27.6901C85.8813 28.0101 85.9513 28.2368 86.3446 28.3701C89.1713 29.2968 91.6013 30.8501 93.6346 33.0301C93.8932 33.3072 94.0362 33.6722 94.0344 34.0498C94.0325 34.4275 93.8859 34.7891 93.6246 35.0601L93.3346 35.3601C93.1589 35.5418 92.9491 35.6869 92.7171 35.7873C92.4851 35.8876 92.2356 35.9412 91.9829 35.9449C91.7302 35.9486 91.4793 35.9024 91.2445 35.8089C91.0097 35.7154 90.7956 35.5765 90.6146 35.4001C87.7013 32.6001 84.2113 31.2834 80.1446 31.4501L79.7946 27.8201C90.5246 21.7401 87.4046 7.20011 75.7846 4.23011L75.8546 0.110107Z" fill="#D55BC7"/>
<path d="M30.3846 0.450073C30.9513 1.59674 31.2546 2.92674 31.2946 4.44007C21.1446 7.17007 17.7646 20.8901 26.8046 27.0201C28.3646 28.0801 30.4646 27.8701 32.3446 28.7101L32.4146 29.5801C32.4413 29.9001 32.3613 30.1901 32.1746 30.4501C31.908 30.8301 31.6946 31.4534 31.5346 32.3201C26.1413 30.4467 21.378 31.4667 17.2446 35.3801C17.0562 35.5594 16.833 35.6982 16.5888 35.7878C16.3446 35.8774 16.0846 35.9159 15.8249 35.9009C15.5652 35.8859 15.3114 35.8177 15.0791 35.7006C14.8469 35.5835 14.6411 35.4199 14.4746 35.2201L14.3146 35.0301C14.0515 34.7165 13.915 34.3156 13.9316 33.9053C13.9482 33.495 14.1168 33.1047 14.4046 32.8101C16.438 30.7167 18.838 29.2101 21.6046 28.2901C21.6682 28.268 21.7257 28.2311 21.772 28.1822C21.8183 28.1333 21.8522 28.0741 21.8709 28.0094C21.8895 27.9447 21.8923 27.8764 21.879 27.8104C21.8657 27.7444 21.8368 27.6826 21.7946 27.6301C19.688 25.0501 18.368 22.0967 17.8346 18.7701C17.8207 18.6926 17.7879 18.6197 17.7391 18.5578C17.6903 18.496 17.6271 18.4471 17.5549 18.4155C17.4828 18.3839 17.404 18.3705 17.3255 18.3765C17.2469 18.3825 17.1711 18.4078 17.1046 18.4501C0.894625 29.0301 -0.435377 51.3301 15.9546 62.0601C16.3413 62.3134 16.4846 62.2167 16.3846 61.7701C15.3113 56.9301 16.008 52.3767 18.4746 48.1101C18.675 47.7612 18.9966 47.4981 19.3782 47.3709C19.7599 47.2437 20.175 47.2612 20.5446 47.4201L20.8746 47.5701C21.0906 47.6646 21.2852 47.802 21.4465 47.974C21.6078 48.146 21.7324 48.349 21.8128 48.5707C21.8933 48.7923 21.9278 49.028 21.9144 49.2634C21.9009 49.4988 21.8398 49.729 21.7346 49.9401C15.5846 62.1901 25.3346 74.3101 38.5946 71.2701C38.9509 71.187 39.3255 71.2446 39.6403 71.4309C39.9552 71.6172 40.186 71.9178 40.2846 72.2701L40.4046 72.7101C40.4743 72.9618 40.4913 73.2253 40.4545 73.4839C40.4178 73.7426 40.3281 73.9908 40.1911 74.2132C40.0541 74.4357 39.8727 74.6274 39.6582 74.7766C39.4437 74.9257 39.2008 75.029 38.9446 75.0801C31.6646 76.5467 25.608 74.7467 20.7746 69.6801C19.828 68.6801 18.7613 67.9067 17.5746 67.3601C12.588 65.0601 8.57462 61.6301 5.53462 57.0701C5.49191 57.0058 5.43153 56.9553 5.36077 56.9246C5.29 56.8939 5.21187 56.8843 5.13578 56.897C5.05969 56.9097 4.98888 56.9441 4.9319 56.9961C4.87492 57.0481 4.83419 57.1155 4.81462 57.1901C1.61462 69.2801 6.49462 81.1001 17.2146 87.2501C17.2695 87.283 17.332 87.3011 17.396 87.3027C17.46 87.3043 17.5233 87.2892 17.5797 87.259C17.6362 87.2287 17.6838 87.1844 17.718 87.1302C17.7521 87.0761 17.7716 87.014 17.7746 86.9501C17.9046 85.3201 19.5246 77.1101 22.7146 79.3601C23.0666 79.6068 23.3246 79.9657 23.4462 80.378C23.5679 80.7903 23.5462 81.2317 23.3846 81.6301C19.458 91.3501 22.4713 97.8734 32.4246 101.2C32.8246 101.833 32.6446 102.983 31.8846 104.65C24.8646 103.277 20.308 99.0867 18.2146 92.0801C18.1704 91.9351 18.096 91.8007 17.9962 91.6854C17.8963 91.57 17.7732 91.4763 17.6346 91.4101C2.62462 84.5301 -4.15538 67.8001 2.64462 52.5501C2.77272 52.2622 2.78348 51.9357 2.67462 51.6401C-3.12538 36.4601 3.16463 20.8801 17.5746 13.8201C17.8746 13.6734 18.0646 13.4367 18.1446 13.1101C19.778 6.60341 23.858 2.38341 30.3846 0.450073Z" fill="#00AFFF"/>
<path d="M92.6946 14.9601C105.425 22.9001 110.715 37.1301 105.385 51.3701C105.265 51.6901 105.255 52.0101 105.355 52.3301C105.688 53.3901 106.045 54.4334 106.425 55.4601C110.415 66.2601 106.285 80.4501 96.9446 87.3901L95.3646 84.0601C102.445 77.6001 106.605 66.6901 103.005 57.3201C102.985 57.2634 102.95 57.2136 102.903 57.1765C102.856 57.1395 102.799 57.1165 102.739 57.1103C102.678 57.104 102.617 57.1147 102.562 57.1412C102.506 57.1677 102.459 57.2089 102.425 57.2601C100.391 60.2868 97.7746 62.8901 94.5746 65.0701C93.9813 63.7767 93.248 62.7468 92.3746 61.9801C94.1646 60.5201 96.1346 59.0501 97.5546 57.3001C107.905 44.5701 104.725 26.9101 90.4946 18.3701C91.2546 18.8568 91.988 17.7201 92.6946 14.9601Z" fill="#C573EF"/>
<path d="M277.825 32.8101L281.235 32.7901C282.001 32.7901 282.385 33.1734 282.385 33.9401V39.5301C282.385 40.2301 282.038 40.5801 281.345 40.5801L277.925 40.6001C277.531 40.6068 277.335 40.8068 277.335 41.2001V63.0401C277.335 63.1727 277.282 63.2999 277.188 63.3937C277.094 63.4874 276.967 63.5401 276.835 63.5401H268.275C268.048 63.5401 267.935 63.4268 267.935 63.2001V41.2301C267.935 40.7834 267.715 40.5634 267.275 40.5701L265.355 40.5901C264.828 40.5968 264.565 40.3368 264.565 39.8101V33.5501C264.565 33.0501 264.818 32.8001 265.325 32.8001H267.325C267.651 32.8001 267.835 32.6368 267.875 32.3101C267.988 31.3768 268.101 30.4601 268.215 29.5601C269.095 22.2301 275.525 19.9201 282.035 20.3901C282.195 20.4034 282.275 20.4868 282.275 20.6401L282.285 28.2101C282.285 28.3501 282.211 28.4134 282.065 28.4001C279.078 28.0268 277.488 29.3101 277.295 32.2501C277.289 32.3216 277.299 32.3935 277.323 32.4612C277.347 32.529 277.385 32.5911 277.435 32.6437C277.485 32.6963 277.545 32.7382 277.612 32.7668C277.679 32.7955 277.751 32.8102 277.825 32.8101Z" fill="#081F59"/>
<path d="M125.845 38C125.791 44.0134 125.801 50.0267 125.875 56.04C125.925 60.12 130.805 59.38 133.325 59.27C133.362 59.2687 133.4 59.2749 133.435 59.2884C133.47 59.3019 133.502 59.3223 133.529 59.3484C133.556 59.3746 133.578 59.4059 133.592 59.4405C133.607 59.4752 133.615 59.5124 133.615 59.55L133.695 63.08C133.695 63.28 133.595 63.3934 133.395 63.42C126.175 64.37 120.965 63.15 120.865 55.05C120.798 49.3634 120.788 43.6734 120.835 37.98C120.841 37.64 120.675 37.4734 120.335 37.48L117.345 37.51C117.285 37.5114 117.225 37.5004 117.169 37.4779C117.114 37.4554 117.063 37.4217 117.02 37.3789C116.977 37.336 116.943 37.2849 116.92 37.2284C116.897 37.1719 116.885 37.1113 116.885 37.05V33.78C116.885 33.4734 117.038 33.3234 117.345 33.33L120.305 33.34C120.651 33.34 120.825 33.1667 120.825 32.82L120.815 26.3C120.815 25.9534 120.985 25.78 121.325 25.78H125.325C125.665 25.78 125.835 25.9467 125.835 26.28L125.825 32.81C125.818 33.1634 125.995 33.34 126.355 33.34H133.125C133.445 33.34 133.611 33.5034 133.625 33.83L133.705 37.08C133.711 37.3534 133.575 37.49 133.295 37.49H126.365C126.025 37.49 125.851 37.66 125.845 38Z" fill="#081F59"/>
<path d="M79.7946 27.8201L80.1446 31.4501C68.5546 33.2001 64.1246 46.6801 73.1946 54.2301C73.486 54.4704 73.6829 54.8059 73.7506 55.1775C73.8183 55.549 73.7524 55.9325 73.5646 56.2601L73.3846 56.5801C72.6846 57.8067 71.7913 57.9734 70.7046 57.0801C59.0946 47.6001 64.8146 28.9901 79.7946 27.8201Z" fill="#F1307E"/>
<path d="M32.3446 28.7101C38.178 30.9034 41.7813 35.0134 43.1546 41.0401C44.348 46.3001 42.6746 51.4568 38.1346 56.5101C37.2813 57.4634 36.308 57.6134 35.2146 56.9601L34.8946 56.7701C34.7015 56.6559 34.5375 56.4984 34.4156 56.3101C34.2936 56.1218 34.217 55.9078 34.1918 55.6848C34.1666 55.4619 34.1935 55.2362 34.2704 55.0254C34.3472 54.8146 34.4719 54.6245 34.6346 54.4701C41.9646 47.4701 40.9646 36.5701 31.5346 32.3201C31.6946 31.4534 31.908 30.8301 32.1746 30.4501C32.3613 30.1901 32.4413 29.9001 32.4146 29.5801L32.3446 28.7101Z" fill="#0079FF"/>
<path d="M317.05 46.8468C317.222 48.9344 316.976 51.0357 316.325 53.0309C315.675 55.026 314.633 56.8759 313.26 58.4749C311.887 60.0739 310.209 61.3907 308.322 62.3501C306.434 63.3095 304.375 63.8928 302.262 64.0665C300.148 64.2403 298.021 64.0012 296.002 63.3629C293.984 62.7246 292.113 61.6995 290.497 60.3463C288.881 58.9931 287.552 57.3381 286.584 55.476C285.617 53.6139 285.031 51.581 284.859 49.4934C284.687 47.4059 284.934 45.3046 285.584 43.3094C286.234 41.3143 287.276 39.4644 288.649 37.8654C290.022 36.2664 291.7 34.9496 293.588 33.9902C295.475 33.0308 297.534 32.4475 299.648 32.2737C301.761 32.1 303.888 32.3391 305.907 32.9774C307.925 33.6157 309.796 34.6407 311.412 35.994C313.028 37.3472 314.358 39.0021 315.325 40.8643C316.292 42.7264 316.879 44.7593 317.05 46.8468ZM300.873 55.9197C302.6 55.9378 304.264 55.1387 305.5 53.6981C306.736 52.2576 307.443 50.2936 307.464 48.2383C307.486 46.183 306.821 44.2047 305.615 42.7386C304.409 41.2725 302.762 40.4386 301.036 40.4205C299.309 40.4025 297.645 41.2016 296.409 42.6421C295.173 44.0827 294.467 46.0466 294.445 48.1019C294.423 50.1572 295.089 52.1356 296.294 53.6017C297.5 55.0678 299.147 55.9016 300.873 55.9197Z" fill="#081F59"/>
<path d="M361.275 40.8701C353.525 38.5601 351.765 47.4801 354.035 52.5001C356.035 56.9201 361.215 57.2601 363.655 52.9001C363.848 52.5534 364.145 52.3834 364.545 52.3901L373.145 52.4001C373.518 52.4001 373.661 52.5834 373.575 52.9501C369.725 68.4601 346.665 67.3901 343.945 51.7101C343.211 47.4767 343.701 43.6167 345.415 40.1301C351.125 28.5201 370.225 30.1301 373.575 42.9501C373.735 43.5834 373.488 43.9001 372.835 43.9001L364.805 43.9101C364.125 43.9101 363.648 43.5968 363.375 42.9701C362.888 41.8434 362.188 41.1434 361.275 40.8701Z" fill="#081F59"/>
<path d="M387.905 50.4102C386.425 50.4102 386.018 51.0735 386.685 52.4002L387.425 53.8801C387.766 54.567 388.288 55.1489 388.934 55.5642C389.58 55.9796 390.326 56.2131 391.095 56.2402C393.861 56.3468 395.525 55.8768 396.085 54.8302C396.618 53.8368 397.448 53.3402 398.575 53.3402H405.795C406.855 53.3402 407.175 53.8302 406.755 54.8102C403.325 62.6702 395.325 65.5002 387.355 63.1202C375.465 59.5702 373.075 41.5002 383.555 34.7802C388.545 31.5802 395.875 31.6002 400.965 34.6702C406.138 37.7835 408.378 42.8535 407.685 49.8801C407.651 50.2402 407.451 50.4202 407.085 50.4202L387.905 50.4102ZM386.715 45.2902L398.075 45.2102C398.117 45.2102 398.158 45.1933 398.188 45.1633C398.218 45.1333 398.235 45.0926 398.235 45.0502V44.9702C398.23 44.3027 398.079 43.6429 397.79 43.0283C397.501 42.4137 397.079 41.8565 396.55 41.3884C396.021 40.9204 395.394 40.5507 394.705 40.3005C394.016 40.0502 393.278 39.9244 392.535 39.9302H392.175C390.674 39.9417 389.239 40.4875 388.185 41.4476C387.132 42.4076 386.545 43.7035 386.555 45.0502V45.1301C386.555 45.1726 386.571 45.2133 386.601 45.2433C386.631 45.2733 386.672 45.2902 386.715 45.2902Z" fill="#081F59"/>
<path d="M331.985 37.2301C334.025 34.4101 336.791 32.8401 340.285 32.5201C340.811 32.4734 341.075 32.7134 341.075 33.2401L341.065 42.0301C341.065 42.4368 340.861 42.6034 340.455 42.5301C335.365 41.5701 331.255 43.7801 331.305 49.2901C331.351 54.1101 331.385 58.7568 331.405 63.2301C331.406 63.2703 331.399 63.3104 331.385 63.348C331.37 63.3855 331.348 63.4198 331.32 63.4487C331.292 63.4776 331.259 63.5007 331.222 63.5163C331.185 63.532 331.145 63.5401 331.105 63.5401H322.315C322.24 63.5401 322.169 63.5106 322.117 63.4581C322.064 63.4056 322.035 63.3344 322.035 63.2601V33.8201C322.035 33.1401 322.375 32.8001 323.055 32.8001H330.365C331.051 32.8001 331.395 33.1401 331.395 33.8201L331.375 37.0301C331.376 37.1006 331.399 37.169 331.441 37.2257C331.483 37.2824 331.542 37.3246 331.609 37.3466C331.676 37.3686 331.748 37.3692 331.815 37.3483C331.883 37.3274 331.942 37.2861 331.985 37.2301Z" fill="#081F59"/>
<path d="M143.045 50.6702C143.885 60.7302 156.925 63.4302 161.215 54.4902C161.295 54.3235 161.425 54.2402 161.605 54.2402L166.345 54.3002C166.377 54.3004 166.409 54.3081 166.438 54.3229C166.467 54.3376 166.493 54.359 166.512 54.3852C166.531 54.4114 166.545 54.4417 166.55 54.4738C166.556 54.5059 166.554 54.5389 166.545 54.5702C162.825 66.1002 147.075 67.0502 140.485 57.8502C134.615 49.6602 138.295 35.6502 148.775 33.3002C159.795 30.8302 168.255 38.2102 167.065 49.8502C167.038 50.1502 166.871 50.3002 166.565 50.3002H143.385C143.138 50.3002 143.025 50.4235 143.045 50.6702ZM143.305 46.2902L161.985 46.2502C162.027 46.2502 162.068 46.2333 162.098 46.2033C162.128 46.1733 162.145 46.1326 162.145 46.0902V45.9902C162.142 44.8187 161.901 43.6593 161.437 42.5781C160.972 41.4968 160.292 40.5149 159.436 39.6885C158.58 38.862 157.564 38.2072 156.447 37.7614C155.33 37.3156 154.133 37.0875 152.925 37.0902H152.325C149.885 37.0956 147.547 38.0405 145.825 39.717C144.104 41.3936 143.139 43.6645 143.145 46.0302V46.1302C143.145 46.1726 143.161 46.2133 143.191 46.2433C143.221 46.2733 143.262 46.2902 143.305 46.2902Z" fill="#081F59"/>
<path d="M197.195 58.69C192.921 63.53 187.948 65.0967 182.275 63.39C167.305 58.88 168.795 34.11 185.205 32.96C190.191 32.6133 194.175 34.35 197.155 38.17C197.415 38.5033 197.541 38.4567 197.535 38.03L197.515 33.73C197.508 33.47 197.635 33.34 197.895 33.34H202.105C202.418 33.34 202.575 33.4967 202.575 33.81V63.04C202.575 63.3733 202.411 63.54 202.085 63.54H197.905C197.631 63.5333 197.495 63.3933 197.495 63.12L197.535 58.82C197.541 58.4667 197.428 58.4233 197.195 58.69ZM187.364 59.7197C190.103 59.7006 192.722 58.4907 194.645 56.3562C196.567 54.2217 197.635 51.3374 197.614 48.3379C197.593 45.3384 196.485 42.4693 194.533 40.3619C192.581 38.2544 189.945 37.0812 187.206 37.1003C184.466 37.1195 181.847 38.3294 179.925 40.4639C178.002 42.5984 176.934 45.4826 176.955 48.4821C176.976 51.4816 178.084 54.3507 180.036 56.4582C181.988 58.5656 184.624 59.7388 187.364 59.7197Z" fill="#081F59"/>
<path d="M237.045 38.78C241.575 30.49 254.375 31.04 258.105 38.96C259.085 41.0467 259.581 44.37 259.595 48.93C259.608 53.7234 259.611 58.4367 259.605 63.07C259.605 63.3834 259.448 63.54 259.135 63.54H255.075C255.018 63.54 254.962 63.5289 254.91 63.5073C254.858 63.4857 254.81 63.454 254.771 63.4141C254.731 63.3742 254.699 63.3268 254.677 63.2746C254.656 63.2224 254.645 63.1665 254.645 63.11C254.671 58.35 254.671 53.5967 254.645 48.85C254.625 44.9034 254.138 42.1134 253.185 40.48C249.555 34.27 238.405 36.66 238.095 45.3C237.881 51.3134 237.805 57.2167 237.865 63.01C237.866 63.0783 237.854 63.1462 237.829 63.2098C237.804 63.2734 237.767 63.3315 237.719 63.3807C237.672 63.4299 237.615 63.4693 237.553 63.4967C237.49 63.524 237.423 63.5387 237.355 63.54H233.355C233.035 63.54 232.878 63.3834 232.885 63.07C232.905 57.5367 232.901 51.8634 232.875 46.05C232.835 34.24 216.685 34.17 216.335 45.3C216.148 51.3934 216.071 57.39 216.105 63.29C216.105 63.4567 216.021 63.54 215.855 63.54H211.335C211.268 63.54 211.205 63.5137 211.158 63.4668C211.111 63.4199 211.085 63.3563 211.085 63.29V34.06C211.085 33.58 211.325 33.34 211.805 33.34H215.115C215.761 33.34 216.088 33.6667 216.095 34.32L216.105 36.77C216.103 36.836 216.123 36.9006 216.161 36.9546C216.198 37.0087 216.252 37.0492 216.315 37.0704C216.377 37.0916 216.445 37.0923 216.508 37.0725C216.571 37.0526 216.626 37.0132 216.665 36.96C221.875 30.31 232.195 31.98 236.435 38.8C236.648 39.14 236.851 39.1334 237.045 38.78Z" fill="#081F59"/>
<path d="M92.3746 61.9802C93.248 62.7468 93.9813 63.7768 94.5746 65.0702C93.1746 65.9302 91.6913 66.7402 90.1246 67.5002C88.0546 68.5102 87.0946 70.0202 85.3946 71.4702C84.6946 70.8902 84.3813 70.2735 84.4546 69.6202C84.488 69.3202 84.388 69.0835 84.1546 68.9102L83.3446 68.3002C88.698 62.7935 89.6646 56.7502 86.2446 50.1702C85.678 49.0835 85.938 48.2535 87.0246 47.6802L87.3746 47.5002C87.722 47.3192 88.1253 47.2774 88.5025 47.3833C88.8796 47.4892 89.2022 47.7348 89.4046 48.0702C91.9513 52.3568 92.6613 56.9402 91.5346 61.8202C91.428 62.2868 91.5813 62.4068 91.9946 62.1802L92.3746 61.9802Z" fill="#D55BC7"/>
<path d="M83.3446 68.3L84.1546 68.91C84.388 69.0834 84.488 69.32 84.4546 69.62C84.3813 70.2734 84.6946 70.89 85.3946 71.47C80.8813 75.19 75.5113 76.4267 69.2846 75.18C68.0713 74.94 67.5246 74.2034 67.6446 72.97L67.6946 72.46C67.7125 72.2766 67.7694 72.0991 67.8617 71.9394C67.9539 71.7796 68.0794 71.6412 68.2298 71.5334C68.3801 71.4256 68.5519 71.3509 68.7338 71.3141C68.9157 71.2773 69.1034 71.2793 69.2846 71.32C74.6113 72.5467 79.298 71.54 83.3446 68.3Z" fill="#F1307E"/>
<path d="M95.3646 84.0602L96.9446 87.3902L90.1946 91.5602C89.9013 91.7402 89.7079 91.9968 89.6146 92.3301C88.2546 96.9235 85.4479 100.487 81.1946 103.02C80.6946 102.18 80.2113 101.56 79.7446 101.16C79.498 100.953 79.3346 100.78 79.2546 100.64C79.0279 100.233 79.0546 99.9735 79.3346 99.8602C86.3546 95.5335 88.0846 89.4201 84.5246 81.5201C84.3763 81.1941 84.3472 80.8263 84.4422 80.4809C84.5372 80.1356 84.7504 79.8345 85.0446 79.6301L85.3546 79.4102C86.368 78.6968 87.1979 78.8701 87.8446 79.9301C89.1646 82.0701 89.9479 84.3968 90.1946 86.9101C90.2413 87.3501 90.4446 87.4468 90.8046 87.2002L95.3646 84.0602Z" fill="#D55BC7"/>
<path d="M121.925 81.6901C121.854 82.0568 121.931 82.4368 122.138 82.7488C122.345 83.0609 122.667 83.2803 123.035 83.3601C124.485 83.6701 126.215 83.9601 127.135 85.1301C127.941 86.1635 127.735 87.1135 126.515 87.9801C124.915 89.1068 123.085 88.9768 121.025 87.5901C120.918 87.5101 120.905 87.4168 120.985 87.3101L121.135 87.0901C121.261 86.9235 121.408 86.9001 121.575 87.0201C123.001 87.9935 124.491 88.0835 126.045 87.2901C126.26 87.1782 126.437 87.0046 126.553 86.7917C126.669 86.5787 126.719 86.336 126.696 86.0945C126.674 85.853 126.58 85.6238 126.426 85.436C126.273 85.2482 126.067 85.1103 125.835 85.0401L122.445 84.0101C122.177 83.9291 121.931 83.7879 121.727 83.5972C121.522 83.4065 121.364 83.1715 121.265 82.9101C119.945 79.3701 124.915 78.9701 126.845 80.4201C126.985 80.5268 127.005 80.6501 126.905 80.7901C126.825 80.9035 126.745 80.9401 126.665 80.9001C125.685 80.4468 124.658 80.2735 123.585 80.3801C122.625 80.4735 122.071 80.9101 121.925 81.6901Z" fill="#00AFFF"/>
<path d="M148.155 84.0901C148.155 85.3101 147.67 86.4801 146.807 87.3428C145.945 88.2055 144.775 88.6901 143.555 88.6901C142.335 88.6901 141.165 88.2055 140.302 87.3428C139.439 86.4801 138.955 85.3101 138.955 84.0901C138.955 82.8701 139.439 81.7001 140.302 80.8374C141.165 79.9748 142.335 79.4901 143.555 79.4901C144.775 79.4901 145.945 79.9748 146.807 80.8374C147.67 81.7001 148.155 82.8701 148.155 84.0901ZM147.295 84.0801C147.295 83.0882 146.901 82.1369 146.199 81.4355C145.498 80.7341 144.547 80.3401 143.555 80.3401C143.063 80.3401 142.577 80.4368 142.123 80.6248C141.67 80.8128 141.257 81.0882 140.91 81.4355C140.563 81.7828 140.287 82.1951 140.099 82.6489C139.911 83.1026 139.815 83.589 139.815 84.0801C139.815 84.5713 139.911 85.0576 140.099 85.5114C140.287 85.9651 140.563 86.3774 140.91 86.7247C141.257 87.072 141.67 87.3475 142.123 87.5354C142.577 87.7234 143.063 87.8201 143.555 87.8201C144.547 87.8201 145.498 87.4261 146.199 86.7247C146.901 86.0233 147.295 85.072 147.295 84.0801Z" fill="#00AFFF"/>
<path d="M161.835 87.6401H165.975C166.081 87.6388 166.183 87.6797 166.259 87.7538C166.335 87.8278 166.378 87.929 166.38 88.0351C166.381 88.1412 166.34 88.2435 166.266 88.3194C166.192 88.3954 166.091 88.4388 165.985 88.4401C164.385 88.4735 162.785 88.4701 161.185 88.4301C160.778 88.4235 160.575 88.2168 160.575 87.8101L160.585 79.9501C160.585 79.7235 160.698 79.6201 160.925 79.6401L161.215 79.6601C161.381 79.6735 161.465 79.7635 161.465 79.9301L161.425 87.2401C161.425 87.2935 161.435 87.3464 161.456 87.3956C161.477 87.4447 161.507 87.4893 161.545 87.5266C161.583 87.5638 161.629 87.5931 161.678 87.6126C161.728 87.6321 161.781 87.6415 161.835 87.6401Z" fill="#00AFFF"/>
<path d="M179.165 85.8702C179.17 86.1791 179.241 86.4834 179.373 86.7626C179.505 87.0418 179.694 87.2896 179.929 87.4894C180.164 87.6891 180.438 87.8363 180.734 87.9209C181.03 88.0055 181.34 88.0258 181.645 87.9802C185.875 87.3602 184.455 83.1602 184.735 79.9402C184.738 79.8981 184.75 79.8571 184.77 79.8197C184.79 79.7823 184.817 79.7492 184.849 79.7222C184.882 79.6953 184.919 79.675 184.96 79.6627C185 79.6503 185.043 79.646 185.085 79.6502C185.171 79.6568 185.258 79.6602 185.345 79.6602C185.385 79.6602 185.405 79.6768 185.405 79.7102C185.785 83.6902 186.205 90.2202 180.355 88.2302C177.535 87.2602 178.155 82.8902 178.245 79.8702C178.245 79.7568 178.298 79.6902 178.405 79.6702L178.695 79.6102C178.941 79.5568 179.068 79.6535 179.075 79.9002L179.165 85.8702Z" fill="#00AFFF"/>
<path d="M200.115 80.3801L197.405 80.5101C197.377 80.5115 197.35 80.5073 197.325 80.4979C197.3 80.4884 197.276 80.4739 197.257 80.4552C197.237 80.4365 197.221 80.414 197.211 80.389C197.2 80.3641 197.195 80.3372 197.195 80.3101L197.215 79.8301C197.217 79.7805 197.238 79.7336 197.273 79.6985C197.308 79.6633 197.355 79.6425 197.405 79.6401L204.075 79.6201C204.102 79.6201 204.129 79.6256 204.154 79.6362C204.178 79.6469 204.201 79.6625 204.22 79.6822C204.238 79.7018 204.253 79.7251 204.262 79.7505C204.272 79.7759 204.276 79.803 204.275 79.8301L204.265 80.2001C204.262 80.2497 204.241 80.2967 204.206 80.3318C204.171 80.3669 204.124 80.3877 204.075 80.3901L201.335 80.4501C201.308 80.4501 201.282 80.4553 201.258 80.4653C201.234 80.4754 201.212 80.4901 201.193 80.5087C201.175 80.5273 201.16 80.5493 201.15 80.5736C201.14 80.5978 201.135 80.6239 201.135 80.6501L201.205 88.1801C201.206 88.2081 201.202 88.236 201.192 88.2621C201.181 88.2883 201.166 88.312 201.146 88.3318C201.126 88.3516 201.103 88.367 201.077 88.3771C201.05 88.3871 201.023 88.3916 200.995 88.3901L200.465 88.3701C200.438 88.3701 200.412 88.3649 200.388 88.3549C200.364 88.3448 200.342 88.3301 200.323 88.3115C200.305 88.293 200.29 88.2709 200.28 88.2467C200.27 88.2224 200.265 88.1964 200.265 88.1701L200.325 80.5801C200.325 80.553 200.319 80.5261 200.308 80.5012C200.298 80.4763 200.282 80.4537 200.263 80.435C200.243 80.4163 200.22 80.4018 200.194 80.3924C200.169 80.3829 200.142 80.3788 200.115 80.3801Z" fill="#00AFFF"/>
<path d="M216.702 79.6303L216.502 79.63C216.287 79.6296 216.112 79.8039 216.112 80.0193L216.097 88.1193C216.097 88.3346 216.271 88.5096 216.487 88.5099L216.687 88.5103C216.902 88.5107 217.077 88.3364 217.077 88.121L217.092 80.021C217.092 79.8056 216.918 79.6307 216.702 79.6303Z" fill="#00AFFF"/>
<path d="M238.655 84.0801C238.655 84.6855 238.535 85.285 238.304 85.8443C238.072 86.4036 237.732 86.9118 237.304 87.3399C236.876 87.7679 236.368 88.1075 235.809 88.3392C235.249 88.5709 234.65 88.6901 234.045 88.6901C232.822 88.6901 231.649 88.2044 230.785 87.3399C229.92 86.4753 229.435 85.3027 229.435 84.0801C229.435 82.8574 229.92 81.6849 230.785 80.8203C231.649 79.9558 232.822 79.4701 234.045 79.4701C235.267 79.4701 236.44 79.9558 237.304 80.8203C238.169 81.6849 238.655 82.8574 238.655 84.0801ZM237.785 84.0901C237.785 83.0982 237.391 82.1469 236.689 81.4455C235.988 80.7441 235.036 80.3501 234.045 80.3501C233.053 80.3501 232.101 80.7441 231.4 81.4455C230.699 82.1469 230.305 83.0982 230.305 84.0901C230.305 85.082 230.699 86.0333 231.4 86.7347C232.101 87.4361 233.053 87.8301 234.045 87.8301C235.036 87.8301 235.988 87.4361 236.689 86.7347C237.391 86.0333 237.785 85.082 237.785 84.0901Z" fill="#00AFFF"/>
<path d="M257.595 86.2901L257.565 79.8501C257.565 79.7917 257.588 79.7358 257.629 79.6945C257.67 79.6533 257.726 79.6301 257.785 79.6301L258.245 79.6401C258.303 79.6401 258.359 79.6633 258.4 79.7045C258.441 79.7458 258.465 79.8017 258.465 79.8601V88.8501C258.465 88.8955 258.451 88.9398 258.425 88.9769C258.399 89.014 258.362 89.0422 258.319 89.0575C258.276 89.0728 258.23 89.0746 258.186 89.0625C258.142 89.0505 258.103 89.0252 258.075 88.9901L252.345 81.6701C252.316 81.635 252.277 81.6097 252.233 81.5977C252.189 81.5856 252.143 81.5873 252.1 81.6027C252.058 81.618 252.021 81.6462 251.995 81.6833C251.968 81.7204 251.955 81.7647 251.955 81.8101L252.005 88.2601C252.005 88.3184 251.981 88.3744 251.94 88.4157C251.899 88.4569 251.843 88.4801 251.785 88.4801L251.315 88.4701C251.286 88.4701 251.257 88.4644 251.23 88.4533C251.204 88.4423 251.179 88.4261 251.159 88.4057C251.139 88.3852 251.122 88.361 251.111 88.3343C251.1 88.3076 251.095 88.279 251.095 88.2501L251.075 79.3201C251.075 79.2747 251.088 79.2304 251.115 79.1933C251.141 79.1562 251.178 79.128 251.22 79.1127C251.263 79.0973 251.309 79.0956 251.353 79.1077C251.397 79.1197 251.436 79.145 251.465 79.1801L257.195 86.4301C257.222 86.4695 257.262 86.4988 257.307 86.5136C257.353 86.5284 257.402 86.5278 257.448 86.5119C257.493 86.496 257.532 86.4658 257.558 86.4257C257.585 86.3857 257.598 86.338 257.595 86.2901Z" fill="#00AFFF"/>
<path d="M271.915 81.6901C271.85 82.0633 271.932 82.4472 272.145 82.7607C272.358 83.0742 272.684 83.2927 273.055 83.3701C274.485 83.6701 276.215 83.9901 277.125 85.1401C277.945 86.1601 277.741 87.1068 276.515 87.9801C274.955 89.0868 273.131 88.9668 271.045 87.6201C270.931 87.5468 270.911 87.4568 270.985 87.3501L271.145 87.1101C271.265 86.9368 271.411 86.9068 271.585 87.0201C273.005 87.9935 274.485 88.0868 276.025 87.3001C276.242 87.1876 276.421 87.0128 276.538 86.798C276.656 86.5832 276.707 86.3382 276.684 86.0944C276.662 85.8506 276.567 85.6191 276.412 85.4295C276.257 85.2399 276.049 85.1008 275.815 85.0301C274.115 84.5401 270.105 83.9501 271.225 81.1701C272.045 79.1301 275.135 79.4301 276.765 80.1401C276.911 80.2001 276.975 80.3068 276.955 80.4601L276.915 80.8101C276.895 80.9701 276.811 81.0168 276.665 80.9501C275.658 80.4835 274.631 80.2935 273.585 80.3801C272.611 80.4668 272.055 80.9035 271.915 81.6901Z" fill="#00AFFF"/>
</svg>
